%
M48
M72
T01C0.02362
T02C0.03150
T03C0.03200
T04C0.03937
T05C0.04000
T06C0.07480
%
T01
X21800Y81800
X31800Y81800
X51800Y76800
X51800Y26800
X106800Y26800
X116800Y61800
X126800Y86800
X156800Y86800
X159300Y121800
X146800Y141800
X166800Y151800
X176800Y161800
X146800Y184300
X126800Y121800
T02
X81957Y96800
X91800Y96800
X101643Y96800
X173457Y29300
X193143Y29300
X189300Y141426
X189300Y149300
X189300Y157174
X183099Y171721
X179950Y176446
X176800Y171721
X173650Y176446
X170501Y171721
X26643Y56800
X6957Y56800
T03
X16800Y91800
X16800Y111800
X6800Y111800
X26800Y111800
X36800Y111800
X46800Y111800
X56800Y111800
X66800Y111800
X76800Y111800
X86800Y111800
X96800Y111800
X106800Y111800
X116800Y111800
X126800Y111800
X136800Y111800
X136800Y98800
X126800Y98800
X121800Y71800
X121800Y51800
X121800Y29300
X161800Y29300
X161800Y51800
X161800Y71800
X181800Y71800
X191800Y71800
X184300Y89300
X184300Y99300
X191800Y111800
X184300Y116800
X191800Y121800
X171800Y126800
X171800Y116800
X136800Y141800
X126800Y141800
X116800Y141800
X106800Y141800
X96800Y141800
X86800Y141800
X76800Y141800
X66800Y141800
X56800Y141800
X46800Y141800
X36800Y141800
X26800Y141800
X16800Y141800
X6800Y141800
X6800Y154300
X16800Y154300
X56800Y91800
X101800Y156800
X111800Y156800
X86800Y161800
X86800Y171800
X191800Y51800
X181800Y51800
T04
X189300Y133552
X189300Y165048
T05
X62800Y194300
X72800Y194300
X82800Y194300
X92800Y194300
X102800Y194300
X112800Y194300
X122800Y194300
X132800Y194300
X132800Y6800
X122800Y6800
X112800Y6800
X102800Y6800
X92800Y6800
X82800Y6800
X72800Y6800
X62800Y6800
X46800Y6800
X36800Y6800
X26800Y6800
X16800Y6800
X6800Y6800
T06
X162430Y191800
X191170Y191800
M30
