G75*
%MOIN*%
%OFA0B0*%
%FSLAX25Y25*%
%IPPOS*%
%LPD*%
%AMOC8*
5,1,8,0,0,1.08239X$1,22.5*
%
%ADD10C,0.00000*%
%ADD11OC8,0.05200*%
%ADD12C,0.07400*%
%ADD13C,0.05150*%
%ADD14OC8,0.05150*%
%ADD15C,0.05200*%
%ADD16C,0.11220*%
%ADD17C,0.01600*%
%ADD18C,0.05000*%
%ADD19C,0.03962*%
D10*
X0001800Y0001800D02*
X0001800Y0198650D01*
X0198650Y0198650D01*
X0198650Y0001800D01*
X0001800Y0001800D01*
X0188331Y0127552D02*
X0188333Y0127640D01*
X0188339Y0127728D01*
X0188349Y0127816D01*
X0188363Y0127904D01*
X0188380Y0127990D01*
X0188402Y0128076D01*
X0188427Y0128160D01*
X0188457Y0128244D01*
X0188489Y0128326D01*
X0188526Y0128406D01*
X0188566Y0128485D01*
X0188610Y0128562D01*
X0188657Y0128637D01*
X0188707Y0128709D01*
X0188761Y0128780D01*
X0188817Y0128847D01*
X0188877Y0128913D01*
X0188939Y0128975D01*
X0189005Y0129035D01*
X0189072Y0129091D01*
X0189143Y0129145D01*
X0189215Y0129195D01*
X0189290Y0129242D01*
X0189367Y0129286D01*
X0189446Y0129326D01*
X0189526Y0129363D01*
X0189608Y0129395D01*
X0189692Y0129425D01*
X0189776Y0129450D01*
X0189862Y0129472D01*
X0189948Y0129489D01*
X0190036Y0129503D01*
X0190124Y0129513D01*
X0190212Y0129519D01*
X0190300Y0129521D01*
X0190388Y0129519D01*
X0190476Y0129513D01*
X0190564Y0129503D01*
X0190652Y0129489D01*
X0190738Y0129472D01*
X0190824Y0129450D01*
X0190908Y0129425D01*
X0190992Y0129395D01*
X0191074Y0129363D01*
X0191154Y0129326D01*
X0191233Y0129286D01*
X0191310Y0129242D01*
X0191385Y0129195D01*
X0191457Y0129145D01*
X0191528Y0129091D01*
X0191595Y0129035D01*
X0191661Y0128975D01*
X0191723Y0128913D01*
X0191783Y0128847D01*
X0191839Y0128780D01*
X0191893Y0128709D01*
X0191943Y0128637D01*
X0191990Y0128562D01*
X0192034Y0128485D01*
X0192074Y0128406D01*
X0192111Y0128326D01*
X0192143Y0128244D01*
X0192173Y0128160D01*
X0192198Y0128076D01*
X0192220Y0127990D01*
X0192237Y0127904D01*
X0192251Y0127816D01*
X0192261Y0127728D01*
X0192267Y0127640D01*
X0192269Y0127552D01*
X0192267Y0127464D01*
X0192261Y0127376D01*
X0192251Y0127288D01*
X0192237Y0127200D01*
X0192220Y0127114D01*
X0192198Y0127028D01*
X0192173Y0126944D01*
X0192143Y0126860D01*
X0192111Y0126778D01*
X0192074Y0126698D01*
X0192034Y0126619D01*
X0191990Y0126542D01*
X0191943Y0126467D01*
X0191893Y0126395D01*
X0191839Y0126324D01*
X0191783Y0126257D01*
X0191723Y0126191D01*
X0191661Y0126129D01*
X0191595Y0126069D01*
X0191528Y0126013D01*
X0191457Y0125959D01*
X0191385Y0125909D01*
X0191310Y0125862D01*
X0191233Y0125818D01*
X0191154Y0125778D01*
X0191074Y0125741D01*
X0190992Y0125709D01*
X0190908Y0125679D01*
X0190824Y0125654D01*
X0190738Y0125632D01*
X0190652Y0125615D01*
X0190564Y0125601D01*
X0190476Y0125591D01*
X0190388Y0125585D01*
X0190300Y0125583D01*
X0190212Y0125585D01*
X0190124Y0125591D01*
X0190036Y0125601D01*
X0189948Y0125615D01*
X0189862Y0125632D01*
X0189776Y0125654D01*
X0189692Y0125679D01*
X0189608Y0125709D01*
X0189526Y0125741D01*
X0189446Y0125778D01*
X0189367Y0125818D01*
X0189290Y0125862D01*
X0189215Y0125909D01*
X0189143Y0125959D01*
X0189072Y0126013D01*
X0189005Y0126069D01*
X0188939Y0126129D01*
X0188877Y0126191D01*
X0188817Y0126257D01*
X0188761Y0126324D01*
X0188707Y0126395D01*
X0188657Y0126467D01*
X0188610Y0126542D01*
X0188566Y0126619D01*
X0188526Y0126698D01*
X0188489Y0126778D01*
X0188457Y0126860D01*
X0188427Y0126944D01*
X0188402Y0127028D01*
X0188380Y0127114D01*
X0188363Y0127200D01*
X0188349Y0127288D01*
X0188339Y0127376D01*
X0188333Y0127464D01*
X0188331Y0127552D01*
X0188331Y0159048D02*
X0188333Y0159136D01*
X0188339Y0159224D01*
X0188349Y0159312D01*
X0188363Y0159400D01*
X0188380Y0159486D01*
X0188402Y0159572D01*
X0188427Y0159656D01*
X0188457Y0159740D01*
X0188489Y0159822D01*
X0188526Y0159902D01*
X0188566Y0159981D01*
X0188610Y0160058D01*
X0188657Y0160133D01*
X0188707Y0160205D01*
X0188761Y0160276D01*
X0188817Y0160343D01*
X0188877Y0160409D01*
X0188939Y0160471D01*
X0189005Y0160531D01*
X0189072Y0160587D01*
X0189143Y0160641D01*
X0189215Y0160691D01*
X0189290Y0160738D01*
X0189367Y0160782D01*
X0189446Y0160822D01*
X0189526Y0160859D01*
X0189608Y0160891D01*
X0189692Y0160921D01*
X0189776Y0160946D01*
X0189862Y0160968D01*
X0189948Y0160985D01*
X0190036Y0160999D01*
X0190124Y0161009D01*
X0190212Y0161015D01*
X0190300Y0161017D01*
X0190388Y0161015D01*
X0190476Y0161009D01*
X0190564Y0160999D01*
X0190652Y0160985D01*
X0190738Y0160968D01*
X0190824Y0160946D01*
X0190908Y0160921D01*
X0190992Y0160891D01*
X0191074Y0160859D01*
X0191154Y0160822D01*
X0191233Y0160782D01*
X0191310Y0160738D01*
X0191385Y0160691D01*
X0191457Y0160641D01*
X0191528Y0160587D01*
X0191595Y0160531D01*
X0191661Y0160471D01*
X0191723Y0160409D01*
X0191783Y0160343D01*
X0191839Y0160276D01*
X0191893Y0160205D01*
X0191943Y0160133D01*
X0191990Y0160058D01*
X0192034Y0159981D01*
X0192074Y0159902D01*
X0192111Y0159822D01*
X0192143Y0159740D01*
X0192173Y0159656D01*
X0192198Y0159572D01*
X0192220Y0159486D01*
X0192237Y0159400D01*
X0192251Y0159312D01*
X0192261Y0159224D01*
X0192267Y0159136D01*
X0192269Y0159048D01*
X0192267Y0158960D01*
X0192261Y0158872D01*
X0192251Y0158784D01*
X0192237Y0158696D01*
X0192220Y0158610D01*
X0192198Y0158524D01*
X0192173Y0158440D01*
X0192143Y0158356D01*
X0192111Y0158274D01*
X0192074Y0158194D01*
X0192034Y0158115D01*
X0191990Y0158038D01*
X0191943Y0157963D01*
X0191893Y0157891D01*
X0191839Y0157820D01*
X0191783Y0157753D01*
X0191723Y0157687D01*
X0191661Y0157625D01*
X0191595Y0157565D01*
X0191528Y0157509D01*
X0191457Y0157455D01*
X0191385Y0157405D01*
X0191310Y0157358D01*
X0191233Y0157314D01*
X0191154Y0157274D01*
X0191074Y0157237D01*
X0190992Y0157205D01*
X0190908Y0157175D01*
X0190824Y0157150D01*
X0190738Y0157128D01*
X0190652Y0157111D01*
X0190564Y0157097D01*
X0190476Y0157087D01*
X0190388Y0157081D01*
X0190300Y0157079D01*
X0190212Y0157081D01*
X0190124Y0157087D01*
X0190036Y0157097D01*
X0189948Y0157111D01*
X0189862Y0157128D01*
X0189776Y0157150D01*
X0189692Y0157175D01*
X0189608Y0157205D01*
X0189526Y0157237D01*
X0189446Y0157274D01*
X0189367Y0157314D01*
X0189290Y0157358D01*
X0189215Y0157405D01*
X0189143Y0157455D01*
X0189072Y0157509D01*
X0189005Y0157565D01*
X0188939Y0157625D01*
X0188877Y0157687D01*
X0188817Y0157753D01*
X0188761Y0157820D01*
X0188707Y0157891D01*
X0188657Y0157963D01*
X0188610Y0158038D01*
X0188566Y0158115D01*
X0188526Y0158194D01*
X0188489Y0158274D01*
X0188457Y0158356D01*
X0188427Y0158440D01*
X0188402Y0158524D01*
X0188380Y0158610D01*
X0188363Y0158696D01*
X0188349Y0158784D01*
X0188339Y0158872D01*
X0188333Y0158960D01*
X0188331Y0159048D01*
D11*
X0172800Y0112800D03*
X0162800Y0112800D03*
X0162860Y0095860D03*
X0172860Y0095860D03*
X0181800Y0071800D03*
X0191800Y0071800D03*
X0191800Y0051800D03*
X0181800Y0051800D03*
X0161800Y0051800D03*
X0161800Y0071800D03*
X0136800Y0098800D03*
X0126800Y0098800D03*
X0121800Y0071800D03*
X0121800Y0051800D03*
X0121800Y0029300D03*
X0161800Y0029300D03*
X0056800Y0091800D03*
X0016800Y0091800D03*
X0016800Y0154300D03*
X0006800Y0154300D03*
X0086800Y0161800D03*
X0086800Y0171800D03*
X0101800Y0156800D03*
X0111800Y0156800D03*
D12*
X0112800Y0194300D03*
X0102800Y0194300D03*
X0092800Y0194300D03*
X0082800Y0194300D03*
X0072800Y0194300D03*
X0062800Y0194300D03*
X0122800Y0194300D03*
X0132800Y0194300D03*
X0132800Y0006800D03*
X0122800Y0006800D03*
X0112800Y0006800D03*
X0102800Y0006800D03*
X0092800Y0006800D03*
X0082800Y0006800D03*
X0072800Y0006800D03*
X0062800Y0006800D03*
X0046800Y0006800D03*
X0036800Y0006800D03*
X0026800Y0006800D03*
X0016800Y0006800D03*
X0006800Y0006800D03*
D13*
X0006957Y0056800D03*
X0026643Y0056800D03*
X0081957Y0096800D03*
X0091800Y0096800D03*
X0101643Y0096800D03*
X0173457Y0029300D03*
X0193143Y0029300D03*
X0183099Y0171721D03*
X0179950Y0176446D03*
X0176800Y0171721D03*
X0173650Y0176446D03*
X0170501Y0171721D03*
D14*
X0190300Y0151174D03*
X0190300Y0143300D03*
X0190300Y0135426D03*
D15*
X0189280Y0112800D02*
X0194480Y0112800D01*
X0194480Y0102800D02*
X0189280Y0102800D01*
X0189280Y0092800D02*
X0194480Y0092800D01*
X0136800Y0109200D02*
X0136800Y0114400D01*
X0126800Y0114400D02*
X0126800Y0109200D01*
X0116800Y0109200D02*
X0116800Y0114400D01*
X0106800Y0114400D02*
X0106800Y0109200D01*
X0096800Y0109200D02*
X0096800Y0114400D01*
X0086800Y0114400D02*
X0086800Y0109200D01*
X0076800Y0109200D02*
X0076800Y0114400D01*
X0066800Y0114400D02*
X0066800Y0109200D01*
X0056800Y0109200D02*
X0056800Y0114400D01*
X0046800Y0114400D02*
X0046800Y0109200D01*
X0036800Y0109200D02*
X0036800Y0114400D01*
X0026800Y0114400D02*
X0026800Y0109200D01*
X0016800Y0109200D02*
X0016800Y0114400D01*
X0006800Y0114400D02*
X0006800Y0109200D01*
X0006800Y0139200D02*
X0006800Y0144400D01*
X0016800Y0144400D02*
X0016800Y0139200D01*
X0026800Y0139200D02*
X0026800Y0144400D01*
X0036800Y0144400D02*
X0036800Y0139200D01*
X0046800Y0139200D02*
X0046800Y0144400D01*
X0056800Y0144400D02*
X0056800Y0139200D01*
X0066800Y0139200D02*
X0066800Y0144400D01*
X0076800Y0144400D02*
X0076800Y0139200D01*
X0086800Y0139200D02*
X0086800Y0144400D01*
X0096800Y0144400D02*
X0096800Y0139200D01*
X0106800Y0139200D02*
X0106800Y0144400D01*
X0116800Y0144400D02*
X0116800Y0139200D01*
X0126800Y0139200D02*
X0126800Y0144400D01*
X0136800Y0144400D02*
X0136800Y0139200D01*
D16*
X0162430Y0191800D03*
X0191170Y0191800D03*
D17*
X0193850Y0185106D02*
X0193850Y0164904D01*
X0191646Y0165817D01*
X0188954Y0165817D01*
X0186466Y0164786D01*
X0184562Y0162882D01*
X0183531Y0160394D01*
X0183531Y0157702D01*
X0184562Y0155214D01*
X0186466Y0153310D01*
X0186513Y0153291D01*
X0186125Y0152903D01*
X0186125Y0149445D01*
X0188333Y0147237D01*
X0186125Y0145029D01*
X0186125Y0141571D01*
X0188170Y0139526D01*
X0154872Y0139526D01*
X0149122Y0145276D01*
X0147616Y0145900D01*
X0140725Y0145900D01*
X0140361Y0146779D01*
X0139179Y0147961D01*
X0137635Y0148600D01*
X0135965Y0148600D01*
X0134421Y0147961D01*
X0133239Y0146779D01*
X0132600Y0145235D01*
X0132600Y0138365D01*
X0133239Y0136821D01*
X0134421Y0135639D01*
X0135965Y0135000D01*
X0137635Y0135000D01*
X0139179Y0135639D01*
X0140361Y0136821D01*
X0140725Y0137700D01*
X0145102Y0137700D01*
X0150852Y0131950D01*
X0152358Y0131326D01*
X0184537Y0131326D01*
X0183531Y0128898D01*
X0183531Y0126206D01*
X0184562Y0123718D01*
X0186466Y0121814D01*
X0188954Y0120783D01*
X0191646Y0120783D01*
X0193850Y0121696D01*
X0193850Y0117000D01*
X0188445Y0117000D01*
X0188203Y0116900D01*
X0175498Y0116900D01*
X0168276Y0124122D01*
X0167122Y0125276D01*
X0165616Y0125900D01*
X0125984Y0125900D01*
X0124478Y0125276D01*
X0123324Y0124122D01*
X0122700Y0122616D01*
X0122700Y0120984D01*
X0123324Y0119478D01*
X0124478Y0118324D01*
X0124865Y0118164D01*
X0124833Y0118131D01*
X0124421Y0117961D01*
X0123239Y0116779D01*
X0122600Y0115235D01*
X0122600Y0108365D01*
X0123239Y0106821D01*
X0124421Y0105639D01*
X0125965Y0105000D01*
X0127635Y0105000D01*
X0129179Y0105639D01*
X0130361Y0106821D01*
X0131000Y0108365D01*
X0131000Y0112702D01*
X0132600Y0114302D01*
X0132600Y0108365D01*
X0133239Y0106821D01*
X0134421Y0105639D01*
X0135965Y0105000D01*
X0137635Y0105000D01*
X0139179Y0105639D01*
X0140361Y0106821D01*
X0141000Y0108365D01*
X0141000Y0115235D01*
X0140361Y0116779D01*
X0139440Y0117700D01*
X0163102Y0117700D01*
X0163602Y0117200D01*
X0162800Y0117200D01*
X0162800Y0112800D01*
X0167200Y0112800D01*
X0167200Y0113602D01*
X0168600Y0112202D01*
X0168600Y0111060D01*
X0171060Y0108600D01*
X0174540Y0108600D01*
X0174640Y0108700D01*
X0188203Y0108700D01*
X0188445Y0108600D01*
X0193850Y0108600D01*
X0193850Y0107000D01*
X0188445Y0107000D01*
X0188203Y0106900D01*
X0178984Y0106900D01*
X0177478Y0106276D01*
X0171262Y0100060D01*
X0171120Y0100060D01*
X0168660Y0097600D01*
X0168660Y0094120D01*
X0171120Y0091660D01*
X0174600Y0091660D01*
X0177060Y0094120D01*
X0177060Y0094262D01*
X0181498Y0098700D01*
X0188203Y0098700D01*
X0188445Y0098600D01*
X0193850Y0098600D01*
X0193850Y0097200D01*
X0191880Y0097200D01*
X0191880Y0092800D01*
X0191880Y0092800D01*
X0191880Y0088400D01*
X0193850Y0088400D01*
X0193850Y0078121D01*
X0193835Y0078159D01*
X0191335Y0080659D01*
X0190659Y0081335D01*
X0189777Y0081700D01*
X0164965Y0081700D01*
X0155900Y0087139D01*
X0155900Y0087616D01*
X0155276Y0089122D01*
X0154122Y0090276D01*
X0152616Y0090900D01*
X0063498Y0090900D01*
X0061000Y0093398D01*
X0061000Y0093540D01*
X0058540Y0096000D01*
X0055060Y0096000D01*
X0052600Y0093540D01*
X0052600Y0090060D01*
X0055060Y0087600D01*
X0055202Y0087600D01*
X0057204Y0085598D01*
X0051987Y0080381D01*
X0051088Y0080381D01*
X0049771Y0079836D01*
X0048764Y0078829D01*
X0048219Y0077512D01*
X0048219Y0076088D01*
X0048764Y0074771D01*
X0049771Y0073764D01*
X0051088Y0073219D01*
X0052512Y0073219D01*
X0053829Y0073764D01*
X0054836Y0074771D01*
X0055381Y0076088D01*
X0055381Y0076987D01*
X0061094Y0082700D01*
X0152616Y0082700D01*
X0153416Y0083032D01*
X0162812Y0077394D01*
X0162941Y0077265D01*
X0163218Y0077151D01*
X0163475Y0076996D01*
X0163655Y0076970D01*
X0163823Y0076900D01*
X0164122Y0076900D01*
X0164419Y0076856D01*
X0164595Y0076900D01*
X0188306Y0076900D01*
X0189400Y0075806D01*
X0189400Y0075340D01*
X0187600Y0073540D01*
X0187600Y0070060D01*
X0190060Y0067600D01*
X0193540Y0067600D01*
X0193850Y0067911D01*
X0193850Y0058121D01*
X0193835Y0058159D01*
X0188835Y0063159D01*
X0188159Y0063835D01*
X0187277Y0064200D01*
X0119464Y0064200D01*
X0118829Y0064836D01*
X0117512Y0065381D01*
X0116088Y0065381D01*
X0114771Y0064836D01*
X0113764Y0063829D01*
X0113219Y0062512D01*
X0113219Y0061088D01*
X0113764Y0059771D01*
X0114771Y0058764D01*
X0116088Y0058219D01*
X0117512Y0058219D01*
X0118829Y0058764D01*
X0119464Y0059400D01*
X0185806Y0059400D01*
X0189400Y0055806D01*
X0189400Y0055340D01*
X0187600Y0053540D01*
X0187600Y0050060D01*
X0190060Y0047600D01*
X0193540Y0047600D01*
X0193850Y0047911D01*
X0193850Y0033617D01*
X0193487Y0033675D01*
X0193143Y0033675D01*
X0193143Y0029300D01*
X0193143Y0024925D01*
X0193487Y0024925D01*
X0193850Y0024983D01*
X0193850Y0006600D01*
X0133000Y0006600D01*
X0133000Y0007000D01*
X0132600Y0007000D01*
X0132600Y0012300D01*
X0132367Y0012300D01*
X0131512Y0012165D01*
X0130689Y0011897D01*
X0129917Y0011504D01*
X0129217Y0010995D01*
X0128605Y0010383D01*
X0128096Y0009683D01*
X0127703Y0008911D01*
X0127685Y0008856D01*
X0127293Y0009802D01*
X0125802Y0011293D01*
X0123854Y0012100D01*
X0121746Y0012100D01*
X0119798Y0011293D01*
X0118307Y0009802D01*
X0117800Y0008578D01*
X0117293Y0009802D01*
X0115802Y0011293D01*
X0113854Y0012100D01*
X0111746Y0012100D01*
X0109798Y0011293D01*
X0108307Y0009802D01*
X0107800Y0008578D01*
X0107293Y0009802D01*
X0105802Y0011293D01*
X0103854Y0012100D01*
X0101746Y0012100D01*
X0099798Y0011293D01*
X0098307Y0009802D01*
X0097800Y0008578D01*
X0097293Y0009802D01*
X0095802Y0011293D01*
X0093854Y0012100D01*
X0091746Y0012100D01*
X0089798Y0011293D01*
X0088307Y0009802D01*
X0087800Y0008578D01*
X0087293Y0009802D01*
X0085802Y0011293D01*
X0083854Y0012100D01*
X0081746Y0012100D01*
X0079798Y0011293D01*
X0078307Y0009802D01*
X0077800Y0008578D01*
X0077293Y0009802D01*
X0075802Y0011293D01*
X0075200Y0011543D01*
X0075200Y0038277D01*
X0074835Y0039159D01*
X0074159Y0039835D01*
X0034529Y0079465D01*
X0034836Y0079771D01*
X0035381Y0081088D01*
X0035381Y0082512D01*
X0034836Y0083829D01*
X0033829Y0084836D01*
X0032512Y0085381D01*
X0031088Y0085381D01*
X0029771Y0084836D01*
X0028764Y0083829D01*
X0028219Y0082512D01*
X0028219Y0081088D01*
X0028764Y0079771D01*
X0029400Y0079136D01*
X0029400Y0078323D01*
X0029765Y0077441D01*
X0070400Y0036806D01*
X0070400Y0011543D01*
X0069798Y0011293D01*
X0068307Y0009802D01*
X0067800Y0008578D01*
X0067293Y0009802D01*
X0065802Y0011293D01*
X0065200Y0011543D01*
X0065200Y0038277D01*
X0064835Y0039159D01*
X0064159Y0039835D01*
X0024529Y0079465D01*
X0024836Y0079771D01*
X0025381Y0081088D01*
X0025381Y0082512D01*
X0024836Y0083829D01*
X0023829Y0084836D01*
X0022512Y0085381D01*
X0021088Y0085381D01*
X0019771Y0084836D01*
X0018764Y0083829D01*
X0018219Y0082512D01*
X0018219Y0081088D01*
X0018764Y0079771D01*
X0019400Y0079136D01*
X0019400Y0078323D01*
X0019765Y0077441D01*
X0060400Y0036806D01*
X0060400Y0011543D01*
X0059798Y0011293D01*
X0058307Y0009802D01*
X0057500Y0007854D01*
X0057500Y0006600D01*
X0052100Y0006600D01*
X0052100Y0007854D01*
X0051293Y0009802D01*
X0049802Y0011293D01*
X0047854Y0012100D01*
X0045746Y0012100D01*
X0043798Y0011293D01*
X0042307Y0009802D01*
X0041800Y0008578D01*
X0041293Y0009802D01*
X0039802Y0011293D01*
X0037854Y0012100D01*
X0035746Y0012100D01*
X0033798Y0011293D01*
X0032307Y0009802D01*
X0031915Y0008856D01*
X0031897Y0008911D01*
X0031504Y0009683D01*
X0030995Y0010383D01*
X0030383Y0010995D01*
X0029683Y0011504D01*
X0028911Y0011897D01*
X0028088Y0012165D01*
X0027233Y0012300D01*
X0027000Y0012300D01*
X0027000Y0007000D01*
X0026600Y0007000D01*
X0026600Y0012300D01*
X0026367Y0012300D01*
X0025512Y0012165D01*
X0024689Y0011897D01*
X0023917Y0011504D01*
X0023217Y0010995D01*
X0022605Y0010383D01*
X0022096Y0009683D01*
X0021703Y0008911D01*
X0021685Y0008856D01*
X0021293Y0009802D01*
X0019802Y0011293D01*
X0019200Y0011543D01*
X0019200Y0020806D01*
X0022794Y0024400D01*
X0049136Y0024400D01*
X0049771Y0023764D01*
X0051088Y0023219D01*
X0052512Y0023219D01*
X0053829Y0023764D01*
X0054836Y0024771D01*
X0055381Y0026088D01*
X0055381Y0027512D01*
X0054836Y0028829D01*
X0053829Y0029836D01*
X0052512Y0030381D01*
X0051088Y0030381D01*
X0049771Y0029836D01*
X0049136Y0029200D01*
X0021323Y0029200D01*
X0020441Y0028835D01*
X0015441Y0023835D01*
X0014765Y0023159D01*
X0014400Y0022277D01*
X0014400Y0011543D01*
X0013798Y0011293D01*
X0012307Y0009802D01*
X0011800Y0008578D01*
X0011293Y0009802D01*
X0009802Y0011293D01*
X0007854Y0012100D01*
X0006600Y0012100D01*
X0006600Y0052625D01*
X0007788Y0052625D01*
X0009322Y0053261D01*
X0010497Y0054435D01*
X0011132Y0055970D01*
X0011132Y0057630D01*
X0010497Y0059165D01*
X0009322Y0060339D01*
X0007788Y0060975D01*
X0006600Y0060975D01*
X0006600Y0105000D01*
X0007635Y0105000D01*
X0009179Y0105639D01*
X0010361Y0106821D01*
X0011000Y0108365D01*
X0011000Y0115235D01*
X0010361Y0116779D01*
X0009179Y0117961D01*
X0007635Y0118600D01*
X0006600Y0118600D01*
X0006600Y0135000D01*
X0007635Y0135000D01*
X0009179Y0135639D01*
X0010361Y0136821D01*
X0011000Y0138365D01*
X0011000Y0145235D01*
X0010361Y0146779D01*
X0009179Y0147961D01*
X0007635Y0148600D01*
X0006600Y0148600D01*
X0006600Y0150100D01*
X0008540Y0150100D01*
X0011000Y0152560D01*
X0011000Y0156040D01*
X0008540Y0158500D01*
X0006600Y0158500D01*
X0006600Y0193850D01*
X0057500Y0193850D01*
X0057500Y0193246D01*
X0058307Y0191298D01*
X0059798Y0189807D01*
X0061746Y0189000D01*
X0063854Y0189000D01*
X0065802Y0189807D01*
X0067293Y0191298D01*
X0067800Y0192522D01*
X0068307Y0191298D01*
X0069798Y0189807D01*
X0071746Y0189000D01*
X0073854Y0189000D01*
X0075802Y0189807D01*
X0077293Y0191298D01*
X0077800Y0192522D01*
X0078307Y0191298D01*
X0079798Y0189807D01*
X0081746Y0189000D01*
X0083854Y0189000D01*
X0085802Y0189807D01*
X0087293Y0191298D01*
X0087800Y0192522D01*
X0088307Y0191298D01*
X0089798Y0189807D01*
X0091746Y0189000D01*
X0093854Y0189000D01*
X0095802Y0189807D01*
X0097293Y0191298D01*
X0097800Y0192522D01*
X0098307Y0191298D01*
X0099798Y0189807D01*
X0101746Y0189000D01*
X0103854Y0189000D01*
X0105802Y0189807D01*
X0107293Y0191298D01*
X0107800Y0192522D01*
X0108307Y0191298D01*
X0109798Y0189807D01*
X0111746Y0189000D01*
X0113854Y0189000D01*
X0115802Y0189807D01*
X0117293Y0191298D01*
X0117800Y0192522D01*
X0118307Y0191298D01*
X0119798Y0189807D01*
X0121746Y0189000D01*
X0123854Y0189000D01*
X0125802Y0189807D01*
X0127293Y0191298D01*
X0127685Y0192244D01*
X0127703Y0192189D01*
X0128096Y0191417D01*
X0128605Y0190717D01*
X0129217Y0190105D01*
X0129917Y0189596D01*
X0130689Y0189203D01*
X0131512Y0188935D01*
X0132367Y0188800D01*
X0132600Y0188800D01*
X0132600Y0193850D01*
X0133000Y0193850D01*
X0133000Y0188800D01*
X0133233Y0188800D01*
X0134088Y0188935D01*
X0134911Y0189203D01*
X0135683Y0189596D01*
X0136383Y0190105D01*
X0136995Y0190717D01*
X0137504Y0191417D01*
X0137897Y0192189D01*
X0138165Y0193012D01*
X0138297Y0193850D01*
X0155475Y0193850D01*
X0155220Y0193234D01*
X0155220Y0190366D01*
X0156317Y0187716D01*
X0158346Y0185687D01*
X0160996Y0184590D01*
X0163864Y0184590D01*
X0166514Y0185687D01*
X0168542Y0187716D01*
X0169640Y0190366D01*
X0169640Y0193234D01*
X0169385Y0193850D01*
X0184215Y0193850D01*
X0183960Y0193234D01*
X0183960Y0190366D01*
X0185058Y0187716D01*
X0187086Y0185687D01*
X0189736Y0184590D01*
X0192604Y0184590D01*
X0193850Y0185106D01*
X0193850Y0184030D02*
X0150381Y0184030D01*
X0150381Y0183588D02*
X0149836Y0182271D01*
X0148829Y0181264D01*
X0147512Y0180719D01*
X0146088Y0180719D01*
X0144771Y0181264D01*
X0144136Y0181900D01*
X0085294Y0181900D01*
X0069200Y0165806D01*
X0069200Y0147940D01*
X0070361Y0146779D01*
X0071000Y0145235D01*
X0071000Y0138365D01*
X0070361Y0136821D01*
X0069179Y0135639D01*
X0067635Y0135000D01*
X0065965Y0135000D01*
X0064421Y0135639D01*
X0063239Y0136821D01*
X0062600Y0138365D01*
X0062600Y0145235D01*
X0063239Y0146779D01*
X0064400Y0147940D01*
X0064400Y0167277D01*
X0064765Y0168159D01*
X0065441Y0168835D01*
X0082265Y0185659D01*
X0082941Y0186335D01*
X0083823Y0186700D01*
X0144136Y0186700D01*
X0144771Y0187336D01*
X0146088Y0187881D01*
X0147512Y0187881D01*
X0148829Y0187336D01*
X0149836Y0186329D01*
X0150381Y0185012D01*
X0150381Y0183588D01*
X0149902Y0182432D02*
X0193850Y0182432D01*
X0193850Y0180833D02*
X0147788Y0180833D01*
X0145812Y0180833D02*
X0084227Y0180833D01*
X0082629Y0179235D02*
X0170535Y0179235D01*
X0170111Y0178810D02*
X0169476Y0177276D01*
X0169476Y0175988D01*
X0168821Y0175776D01*
X0168208Y0175463D01*
X0167651Y0175058D01*
X0167164Y0174571D01*
X0166759Y0174014D01*
X0166446Y0173401D01*
X0166234Y0172746D01*
X0166126Y0172066D01*
X0166126Y0171721D01*
X0166126Y0171377D01*
X0166234Y0170697D01*
X0166446Y0170042D01*
X0166759Y0169428D01*
X0167164Y0168871D01*
X0167651Y0168384D01*
X0168208Y0167980D01*
X0168821Y0167667D01*
X0169476Y0167454D01*
X0170156Y0167346D01*
X0170501Y0167346D01*
X0170845Y0167346D01*
X0171525Y0167454D01*
X0172180Y0167667D01*
X0172794Y0167980D01*
X0173351Y0168384D01*
X0173792Y0168825D01*
X0174435Y0168182D01*
X0175970Y0167546D01*
X0177630Y0167546D01*
X0179165Y0168182D01*
X0179950Y0168967D01*
X0180734Y0168182D01*
X0182269Y0167546D01*
X0183930Y0167546D01*
X0185464Y0168182D01*
X0186638Y0169356D01*
X0187274Y0170891D01*
X0187274Y0172552D01*
X0186638Y0174086D01*
X0185464Y0175260D01*
X0184124Y0175815D01*
X0184124Y0177276D01*
X0183489Y0178810D01*
X0182314Y0179985D01*
X0180780Y0180620D01*
X0179119Y0180620D01*
X0177585Y0179985D01*
X0176800Y0179200D01*
X0176015Y0179985D01*
X0174481Y0180620D01*
X0172820Y0180620D01*
X0171286Y0179985D01*
X0170111Y0178810D01*
X0169625Y0177636D02*
X0081030Y0177636D01*
X0079432Y0176038D02*
X0084815Y0176038D01*
X0084977Y0176200D02*
X0082400Y0173623D01*
X0082400Y0171800D01*
X0086800Y0171800D01*
X0086800Y0171800D01*
X0086800Y0176200D01*
X0088623Y0176200D01*
X0091200Y0173623D01*
X0091200Y0171800D01*
X0086800Y0171800D01*
X0086800Y0171800D01*
X0086800Y0171800D01*
X0086800Y0176200D01*
X0084977Y0176200D01*
X0086800Y0176038D02*
X0086800Y0176038D01*
X0086800Y0174439D02*
X0086800Y0174439D01*
X0086800Y0172841D02*
X0086800Y0172841D01*
X0086800Y0171800D02*
X0082400Y0171800D01*
X0082400Y0169977D01*
X0084977Y0167400D01*
X0086800Y0167400D01*
X0088623Y0167400D01*
X0091200Y0169977D01*
X0091200Y0171800D01*
X0086800Y0171800D01*
X0086800Y0167400D01*
X0086800Y0171800D01*
X0086800Y0171800D01*
X0086800Y0171242D02*
X0086800Y0171242D01*
X0086800Y0169644D02*
X0086800Y0169644D01*
X0086800Y0168045D02*
X0086800Y0168045D01*
X0089268Y0168045D02*
X0168118Y0168045D01*
X0166649Y0169644D02*
X0090866Y0169644D01*
X0091200Y0171242D02*
X0166147Y0171242D01*
X0166126Y0171721D02*
X0170501Y0171721D01*
X0170501Y0167346D01*
X0170501Y0171721D01*
X0170501Y0171721D01*
X0170501Y0171721D01*
X0166126Y0171721D01*
X0166265Y0172841D02*
X0091200Y0172841D01*
X0090383Y0174439D02*
X0167068Y0174439D01*
X0169476Y0176038D02*
X0088785Y0176038D01*
X0083217Y0174439D02*
X0077833Y0174439D01*
X0076235Y0172841D02*
X0082400Y0172841D01*
X0082400Y0171242D02*
X0074636Y0171242D01*
X0073038Y0169644D02*
X0082734Y0169644D01*
X0084332Y0168045D02*
X0071439Y0168045D01*
X0069841Y0166447D02*
X0193850Y0166447D01*
X0193850Y0168045D02*
X0185134Y0168045D01*
X0186757Y0169644D02*
X0193850Y0169644D01*
X0193850Y0171242D02*
X0187274Y0171242D01*
X0187154Y0172841D02*
X0193850Y0172841D01*
X0193850Y0174439D02*
X0186285Y0174439D01*
X0184124Y0176038D02*
X0193850Y0176038D01*
X0193850Y0177636D02*
X0183975Y0177636D01*
X0183065Y0179235D02*
X0193850Y0179235D01*
X0187227Y0185629D02*
X0166373Y0185629D01*
X0168054Y0187227D02*
X0185546Y0187227D01*
X0184598Y0188826D02*
X0169002Y0188826D01*
X0169640Y0190424D02*
X0183960Y0190424D01*
X0183960Y0192023D02*
X0169640Y0192023D01*
X0169480Y0193621D02*
X0184120Y0193621D01*
X0176835Y0179235D02*
X0176765Y0179235D01*
X0170501Y0171242D02*
X0170501Y0171242D01*
X0170501Y0169644D02*
X0170501Y0169644D01*
X0170501Y0168045D02*
X0170501Y0168045D01*
X0172884Y0168045D02*
X0174766Y0168045D01*
X0176088Y0165381D02*
X0174771Y0164836D01*
X0173764Y0163829D01*
X0173219Y0162512D01*
X0173219Y0161088D01*
X0173764Y0159771D01*
X0174771Y0158764D01*
X0176088Y0158219D01*
X0177512Y0158219D01*
X0178829Y0158764D01*
X0179836Y0159771D01*
X0180381Y0161088D01*
X0180381Y0162512D01*
X0179836Y0163829D01*
X0178829Y0164836D01*
X0177512Y0165381D01*
X0176088Y0165381D01*
X0174801Y0164848D02*
X0089692Y0164848D01*
X0088540Y0166000D02*
X0085060Y0166000D01*
X0082600Y0163540D01*
X0082600Y0160060D01*
X0085060Y0157600D01*
X0088540Y0157600D01*
X0091000Y0160060D01*
X0091000Y0163540D01*
X0088540Y0166000D01*
X0091000Y0163250D02*
X0173524Y0163250D01*
X0173219Y0161651D02*
X0091000Y0161651D01*
X0090992Y0160053D02*
X0098830Y0160053D01*
X0099977Y0161200D02*
X0097400Y0158623D01*
X0097400Y0156800D01*
X0101800Y0156800D01*
X0101800Y0156800D01*
X0101800Y0161200D01*
X0103623Y0161200D01*
X0106200Y0158623D01*
X0106200Y0156800D01*
X0101800Y0156800D01*
X0101800Y0156800D01*
X0101800Y0156800D01*
X0101800Y0161200D01*
X0099977Y0161200D01*
X0101800Y0160053D02*
X0101800Y0160053D01*
X0101800Y0158454D02*
X0101800Y0158454D01*
X0101800Y0156856D02*
X0101800Y0156856D01*
X0101800Y0156800D02*
X0097400Y0156800D01*
X0097400Y0154977D01*
X0098177Y0154200D01*
X0081323Y0154200D01*
X0080441Y0153835D01*
X0075441Y0148835D01*
X0074765Y0148159D01*
X0074737Y0148092D01*
X0074421Y0147961D01*
X0073239Y0146779D01*
X0072600Y0145235D01*
X0072600Y0138365D01*
X0073239Y0136821D01*
X0074421Y0135639D01*
X0075965Y0135000D01*
X0077635Y0135000D01*
X0079179Y0135639D01*
X0080361Y0136821D01*
X0081000Y0138365D01*
X0081000Y0145235D01*
X0080361Y0146779D01*
X0080267Y0146873D01*
X0082794Y0149400D01*
X0164136Y0149400D01*
X0164771Y0148764D01*
X0166088Y0148219D01*
X0167512Y0148219D01*
X0168829Y0148764D01*
X0169836Y0149771D01*
X0170381Y0151088D01*
X0170381Y0152512D01*
X0169836Y0153829D01*
X0168829Y0154836D01*
X0167512Y0155381D01*
X0166088Y0155381D01*
X0164771Y0154836D01*
X0164136Y0154200D01*
X0115140Y0154200D01*
X0116000Y0155060D01*
X0116000Y0158540D01*
X0113540Y0161000D01*
X0110060Y0161000D01*
X0107600Y0158540D01*
X0107600Y0155060D01*
X0108460Y0154200D01*
X0105423Y0154200D01*
X0106200Y0154977D01*
X0106200Y0156800D01*
X0101800Y0156800D01*
X0106200Y0156856D02*
X0107600Y0156856D01*
X0107600Y0158454D02*
X0106200Y0158454D01*
X0104770Y0160053D02*
X0109113Y0160053D01*
X0107600Y0155257D02*
X0106200Y0155257D01*
X0105965Y0148600D02*
X0104421Y0147961D01*
X0103239Y0146779D01*
X0102600Y0145235D01*
X0102600Y0138365D01*
X0103239Y0136821D01*
X0104421Y0135639D01*
X0105965Y0135000D01*
X0107635Y0135000D01*
X0109179Y0135639D01*
X0110361Y0136821D01*
X0111000Y0138365D01*
X0111000Y0145235D01*
X0110361Y0146779D01*
X0109179Y0147961D01*
X0107635Y0148600D01*
X0105965Y0148600D01*
X0103725Y0147265D02*
X0100157Y0147265D01*
X0100156Y0147266D02*
X0099666Y0147756D01*
X0099106Y0148163D01*
X0098489Y0148478D01*
X0097830Y0148692D01*
X0097146Y0148800D01*
X0096800Y0148800D01*
X0096800Y0141800D01*
X0101200Y0141800D01*
X0101200Y0144746D01*
X0101092Y0145430D01*
X0100878Y0146089D01*
X0100563Y0146706D01*
X0100156Y0147266D01*
X0101015Y0145666D02*
X0102778Y0145666D01*
X0102600Y0144068D02*
X0101200Y0144068D01*
X0101200Y0142469D02*
X0102600Y0142469D01*
X0101200Y0141800D02*
X0101200Y0138854D01*
X0101092Y0138170D01*
X0100878Y0137511D01*
X0100563Y0136894D01*
X0100156Y0136334D01*
X0099666Y0135844D01*
X0099106Y0135437D01*
X0098489Y0135122D01*
X0097830Y0134908D01*
X0097146Y0134800D01*
X0096800Y0134800D01*
X0096800Y0141800D01*
X0096800Y0141800D01*
X0096800Y0141800D01*
X0101200Y0141800D01*
X0101200Y0140870D02*
X0102600Y0140870D01*
X0102600Y0139272D02*
X0101200Y0139272D01*
X0100930Y0137673D02*
X0102886Y0137673D01*
X0103985Y0136075D02*
X0099897Y0136075D01*
X0096800Y0136075D02*
X0096800Y0136075D01*
X0096800Y0134800D02*
X0096800Y0141800D01*
X0096800Y0141800D01*
X0096800Y0141800D01*
X0092400Y0141800D01*
X0092400Y0144746D01*
X0092508Y0145430D01*
X0092722Y0146089D01*
X0093037Y0146706D01*
X0093444Y0147266D01*
X0093934Y0147756D01*
X0094494Y0148163D01*
X0095111Y0148478D01*
X0095770Y0148692D01*
X0096454Y0148800D01*
X0096800Y0148800D01*
X0096800Y0141800D01*
X0092400Y0141800D01*
X0092400Y0138854D01*
X0092508Y0138170D01*
X0092722Y0137511D01*
X0093037Y0136894D01*
X0093444Y0136334D01*
X0093934Y0135844D01*
X0094494Y0135437D01*
X0095111Y0135122D01*
X0095770Y0134908D01*
X0096454Y0134800D01*
X0096800Y0134800D01*
X0096800Y0137673D02*
X0096800Y0137673D01*
X0096800Y0139272D02*
X0096800Y0139272D01*
X0096800Y0140870D02*
X0096800Y0140870D01*
X0096800Y0142469D02*
X0096800Y0142469D01*
X0096800Y0144068D02*
X0096800Y0144068D01*
X0096800Y0145666D02*
X0096800Y0145666D01*
X0096800Y0147265D02*
X0096800Y0147265D01*
X0093443Y0147265D02*
X0089875Y0147265D01*
X0090361Y0146779D02*
X0089179Y0147961D01*
X0087635Y0148600D01*
X0085965Y0148600D01*
X0084421Y0147961D01*
X0083239Y0146779D01*
X0082600Y0145235D01*
X0082600Y0138365D01*
X0083239Y0136821D01*
X0084421Y0135639D01*
X0085965Y0135000D01*
X0087635Y0135000D01*
X0089179Y0135639D01*
X0090361Y0136821D01*
X0091000Y0138365D01*
X0091000Y0145235D01*
X0090361Y0146779D01*
X0090822Y0145666D02*
X0092585Y0145666D01*
X0092400Y0144068D02*
X0091000Y0144068D01*
X0091000Y0142469D02*
X0092400Y0142469D01*
X0092400Y0140870D02*
X0091000Y0140870D01*
X0091000Y0139272D02*
X0092400Y0139272D01*
X0092670Y0137673D02*
X0090714Y0137673D01*
X0089615Y0136075D02*
X0093702Y0136075D01*
X0083985Y0136075D02*
X0079615Y0136075D01*
X0080714Y0137673D02*
X0082886Y0137673D01*
X0082600Y0139272D02*
X0081000Y0139272D01*
X0081000Y0140870D02*
X0082600Y0140870D01*
X0082600Y0142469D02*
X0081000Y0142469D01*
X0081000Y0144068D02*
X0082600Y0144068D01*
X0082778Y0145666D02*
X0080822Y0145666D01*
X0080659Y0147265D02*
X0083725Y0147265D01*
X0082257Y0148863D02*
X0164673Y0148863D01*
X0166800Y0151800D02*
X0081800Y0151800D01*
X0076800Y0146800D01*
X0076800Y0141800D01*
X0072600Y0142469D02*
X0071000Y0142469D01*
X0071000Y0140870D02*
X0072600Y0140870D01*
X0072600Y0139272D02*
X0071000Y0139272D01*
X0070714Y0137673D02*
X0072886Y0137673D01*
X0073985Y0136075D02*
X0069615Y0136075D01*
X0063985Y0136075D02*
X0059615Y0136075D01*
X0059179Y0135639D02*
X0060361Y0136821D01*
X0061000Y0138365D01*
X0061000Y0145235D01*
X0060361Y0146779D01*
X0059179Y0147961D01*
X0057635Y0148600D01*
X0055965Y0148600D01*
X0054421Y0147961D01*
X0053239Y0146779D01*
X0052600Y0145235D01*
X0052600Y0138365D01*
X0053239Y0136821D01*
X0054421Y0135639D01*
X0055965Y0135000D01*
X0057635Y0135000D01*
X0059179Y0135639D01*
X0060714Y0137673D02*
X0062886Y0137673D01*
X0062600Y0139272D02*
X0061000Y0139272D01*
X0061000Y0140870D02*
X0062600Y0140870D01*
X0062600Y0142469D02*
X0061000Y0142469D01*
X0061000Y0144068D02*
X0062600Y0144068D01*
X0062778Y0145666D02*
X0060822Y0145666D01*
X0059875Y0147265D02*
X0063725Y0147265D01*
X0064400Y0148863D02*
X0006600Y0148863D01*
X0008901Y0150462D02*
X0014416Y0150462D01*
X0014977Y0149900D02*
X0016800Y0149900D01*
X0018623Y0149900D01*
X0021200Y0152477D01*
X0021200Y0154300D01*
X0021200Y0156123D01*
X0018623Y0158700D01*
X0016800Y0158700D01*
X0016800Y0154300D01*
X0021200Y0154300D01*
X0016800Y0154300D01*
X0016800Y0154300D01*
X0016800Y0154300D01*
X0016800Y0149900D01*
X0016800Y0154300D01*
X0016800Y0154300D01*
X0016800Y0154300D01*
X0012400Y0154300D01*
X0012400Y0156123D01*
X0014977Y0158700D01*
X0016800Y0158700D01*
X0016800Y0154300D01*
X0012400Y0154300D01*
X0012400Y0152477D01*
X0014977Y0149900D01*
X0015111Y0148478D02*
X0015770Y0148692D01*
X0016454Y0148800D01*
X0016800Y0148800D01*
X0016800Y0141800D01*
X0021200Y0141800D01*
X0021200Y0144746D01*
X0021092Y0145430D01*
X0020878Y0146089D01*
X0020563Y0146706D01*
X0020156Y0147266D01*
X0019666Y0147756D01*
X0019106Y0148163D01*
X0018489Y0148478D01*
X0017830Y0148692D01*
X0017146Y0148800D01*
X0016800Y0148800D01*
X0016800Y0141800D01*
X0016800Y0141800D01*
X0016800Y0141800D01*
X0021200Y0141800D01*
X0021200Y0138854D01*
X0021092Y0138170D01*
X0020878Y0137511D01*
X0020563Y0136894D01*
X0020156Y0136334D01*
X0019666Y0135844D01*
X0019106Y0135437D01*
X0018489Y0135122D01*
X0017830Y0134908D01*
X0017146Y0134800D01*
X0016800Y0134800D01*
X0016800Y0141800D01*
X0016800Y0141800D01*
X0016800Y0141800D01*
X0012400Y0141800D01*
X0012400Y0144746D01*
X0012508Y0145430D01*
X0012722Y0146089D01*
X0013037Y0146706D01*
X0013444Y0147266D01*
X0013934Y0147756D01*
X0014494Y0148163D01*
X0015111Y0148478D01*
X0013443Y0147265D02*
X0009875Y0147265D01*
X0010822Y0145666D02*
X0012585Y0145666D01*
X0012400Y0144068D02*
X0011000Y0144068D01*
X0011000Y0142469D02*
X0012400Y0142469D01*
X0012400Y0141800D02*
X0012400Y0138854D01*
X0012508Y0138170D01*
X0012722Y0137511D01*
X0013037Y0136894D01*
X0013444Y0136334D01*
X0013934Y0135844D01*
X0014494Y0135437D01*
X0015111Y0135122D01*
X0015770Y0134908D01*
X0016454Y0134800D01*
X0016800Y0134800D01*
X0016800Y0141800D01*
X0012400Y0141800D01*
X0012400Y0140870D02*
X0011000Y0140870D01*
X0011000Y0139272D02*
X0012400Y0139272D01*
X0012670Y0137673D02*
X0010714Y0137673D01*
X0009615Y0136075D02*
X0013702Y0136075D01*
X0016800Y0136075D02*
X0016800Y0136075D01*
X0016800Y0137673D02*
X0016800Y0137673D01*
X0016800Y0139272D02*
X0016800Y0139272D01*
X0016800Y0140870D02*
X0016800Y0140870D01*
X0016800Y0142469D02*
X0016800Y0142469D01*
X0016800Y0144068D02*
X0016800Y0144068D01*
X0016800Y0145666D02*
X0016800Y0145666D01*
X0016800Y0147265D02*
X0016800Y0147265D01*
X0016800Y0150462D02*
X0016800Y0150462D01*
X0016800Y0152060D02*
X0016800Y0152060D01*
X0016800Y0153659D02*
X0016800Y0153659D01*
X0016800Y0155257D02*
X0016800Y0155257D01*
X0016800Y0156856D02*
X0016800Y0156856D01*
X0016800Y0158454D02*
X0016800Y0158454D01*
X0018868Y0158454D02*
X0064400Y0158454D01*
X0064400Y0156856D02*
X0020467Y0156856D01*
X0021200Y0155257D02*
X0064400Y0155257D01*
X0064400Y0153659D02*
X0021200Y0153659D01*
X0020783Y0152060D02*
X0064400Y0152060D01*
X0064400Y0150462D02*
X0019184Y0150462D01*
X0020157Y0147265D02*
X0023725Y0147265D01*
X0023239Y0146779D02*
X0022600Y0145235D01*
X0022600Y0138365D01*
X0023239Y0136821D01*
X0024421Y0135639D01*
X0025965Y0135000D01*
X0027635Y0135000D01*
X0029179Y0135639D01*
X0030361Y0136821D01*
X0031000Y0138365D01*
X0031000Y0145235D01*
X0030361Y0146779D01*
X0029179Y0147961D01*
X0027635Y0148600D01*
X0025965Y0148600D01*
X0024421Y0147961D01*
X0023239Y0146779D01*
X0022778Y0145666D02*
X0021015Y0145666D01*
X0021200Y0144068D02*
X0022600Y0144068D01*
X0022600Y0142469D02*
X0021200Y0142469D01*
X0021200Y0140870D02*
X0022600Y0140870D01*
X0022600Y0139272D02*
X0021200Y0139272D01*
X0020930Y0137673D02*
X0022886Y0137673D01*
X0023985Y0136075D02*
X0019897Y0136075D01*
X0029615Y0136075D02*
X0033985Y0136075D01*
X0034421Y0135639D02*
X0033239Y0136821D01*
X0032600Y0138365D01*
X0032600Y0145235D01*
X0033239Y0146779D01*
X0034421Y0147961D01*
X0035965Y0148600D01*
X0037635Y0148600D01*
X0039179Y0147961D01*
X0040361Y0146779D01*
X0041000Y0145235D01*
X0041000Y0138365D01*
X0040361Y0136821D01*
X0039179Y0135639D01*
X0037635Y0135000D01*
X0035965Y0135000D01*
X0034421Y0135639D01*
X0032886Y0137673D02*
X0030714Y0137673D01*
X0031000Y0139272D02*
X0032600Y0139272D01*
X0032600Y0140870D02*
X0031000Y0140870D01*
X0031000Y0142469D02*
X0032600Y0142469D01*
X0032600Y0144068D02*
X0031000Y0144068D01*
X0030822Y0145666D02*
X0032778Y0145666D01*
X0033725Y0147265D02*
X0029875Y0147265D01*
X0039875Y0147265D02*
X0043725Y0147265D01*
X0043239Y0146779D02*
X0042600Y0145235D01*
X0042600Y0138365D01*
X0043239Y0136821D01*
X0044421Y0135639D01*
X0045965Y0135000D01*
X0047635Y0135000D01*
X0049179Y0135639D01*
X0050361Y0136821D01*
X0051000Y0138365D01*
X0051000Y0145235D01*
X0050361Y0146779D01*
X0049179Y0147961D01*
X0047635Y0148600D01*
X0045965Y0148600D01*
X0044421Y0147961D01*
X0043239Y0146779D01*
X0042778Y0145666D02*
X0040822Y0145666D01*
X0041000Y0144068D02*
X0042600Y0144068D01*
X0042600Y0142469D02*
X0041000Y0142469D01*
X0041000Y0140870D02*
X0042600Y0140870D01*
X0042600Y0139272D02*
X0041000Y0139272D01*
X0040714Y0137673D02*
X0042886Y0137673D01*
X0043985Y0136075D02*
X0039615Y0136075D01*
X0049615Y0136075D02*
X0053985Y0136075D01*
X0052886Y0137673D02*
X0050714Y0137673D01*
X0051000Y0139272D02*
X0052600Y0139272D01*
X0052600Y0140870D02*
X0051000Y0140870D01*
X0051000Y0142469D02*
X0052600Y0142469D01*
X0052600Y0144068D02*
X0051000Y0144068D01*
X0050822Y0145666D02*
X0052778Y0145666D01*
X0053725Y0147265D02*
X0049875Y0147265D01*
X0064400Y0160053D02*
X0006600Y0160053D01*
X0006600Y0161651D02*
X0064400Y0161651D01*
X0064400Y0163250D02*
X0006600Y0163250D01*
X0006600Y0164848D02*
X0064400Y0164848D01*
X0064400Y0166447D02*
X0006600Y0166447D01*
X0006600Y0168045D02*
X0064718Y0168045D01*
X0066250Y0169644D02*
X0006600Y0169644D01*
X0006600Y0171242D02*
X0067848Y0171242D01*
X0069447Y0172841D02*
X0006600Y0172841D01*
X0006600Y0174439D02*
X0071045Y0174439D01*
X0072644Y0176038D02*
X0006600Y0176038D01*
X0006600Y0177636D02*
X0074242Y0177636D01*
X0075841Y0179235D02*
X0006600Y0179235D01*
X0006600Y0180833D02*
X0077439Y0180833D01*
X0079038Y0182432D02*
X0006600Y0182432D01*
X0006600Y0184030D02*
X0080636Y0184030D01*
X0082235Y0185629D02*
X0006600Y0185629D01*
X0006600Y0187227D02*
X0144663Y0187227D01*
X0146800Y0184300D02*
X0084300Y0184300D01*
X0066800Y0166800D01*
X0066800Y0141800D01*
X0071000Y0144068D02*
X0072600Y0144068D01*
X0072778Y0145666D02*
X0070822Y0145666D01*
X0069875Y0147265D02*
X0073725Y0147265D01*
X0075469Y0148863D02*
X0069200Y0148863D01*
X0069200Y0150462D02*
X0077067Y0150462D01*
X0078666Y0152060D02*
X0069200Y0152060D01*
X0069200Y0153659D02*
X0080264Y0153659D01*
X0084206Y0158454D02*
X0069200Y0158454D01*
X0069200Y0156856D02*
X0097400Y0156856D01*
X0097400Y0158454D02*
X0089394Y0158454D01*
X0082608Y0160053D02*
X0069200Y0160053D01*
X0069200Y0161651D02*
X0082600Y0161651D01*
X0082600Y0163250D02*
X0069200Y0163250D01*
X0069200Y0164848D02*
X0083908Y0164848D01*
X0097400Y0155257D02*
X0069200Y0155257D01*
X0069180Y0190424D02*
X0066420Y0190424D01*
X0067593Y0192023D02*
X0068007Y0192023D01*
X0059180Y0190424D02*
X0006600Y0190424D01*
X0006600Y0188826D02*
X0132204Y0188826D01*
X0132600Y0188826D02*
X0133000Y0188826D01*
X0133396Y0188826D02*
X0155858Y0188826D01*
X0155220Y0190424D02*
X0136702Y0190424D01*
X0137813Y0192023D02*
X0155220Y0192023D01*
X0155380Y0193621D02*
X0138261Y0193621D01*
X0133000Y0193621D02*
X0132600Y0193621D01*
X0132600Y0192023D02*
X0133000Y0192023D01*
X0133000Y0190424D02*
X0132600Y0190424D01*
X0128897Y0190424D02*
X0126420Y0190424D01*
X0127593Y0192023D02*
X0127787Y0192023D01*
X0119180Y0190424D02*
X0116420Y0190424D01*
X0117593Y0192023D02*
X0118007Y0192023D01*
X0109180Y0190424D02*
X0106420Y0190424D01*
X0107593Y0192023D02*
X0108007Y0192023D01*
X0099180Y0190424D02*
X0096420Y0190424D01*
X0097593Y0192023D02*
X0098007Y0192023D01*
X0089180Y0190424D02*
X0086420Y0190424D01*
X0087593Y0192023D02*
X0088007Y0192023D01*
X0079180Y0190424D02*
X0076420Y0190424D01*
X0077593Y0192023D02*
X0078007Y0192023D01*
X0058007Y0192023D02*
X0006600Y0192023D01*
X0006600Y0193621D02*
X0057500Y0193621D01*
X0014732Y0158454D02*
X0008586Y0158454D01*
X0010184Y0156856D02*
X0013133Y0156856D01*
X0012400Y0155257D02*
X0011000Y0155257D01*
X0011000Y0153659D02*
X0012400Y0153659D01*
X0012817Y0152060D02*
X0010500Y0152060D01*
X0006600Y0134476D02*
X0148325Y0134476D01*
X0149924Y0132878D02*
X0006600Y0132878D01*
X0006600Y0131279D02*
X0184518Y0131279D01*
X0183856Y0129681D02*
X0006600Y0129681D01*
X0006600Y0128082D02*
X0183531Y0128082D01*
X0183531Y0126484D02*
X0006600Y0126484D01*
X0006600Y0124885D02*
X0124087Y0124885D01*
X0122978Y0123287D02*
X0006600Y0123287D01*
X0006600Y0121688D02*
X0122700Y0121688D01*
X0123071Y0120090D02*
X0006600Y0120090D01*
X0007898Y0118491D02*
X0015702Y0118491D01*
X0015965Y0118600D02*
X0014421Y0117961D01*
X0013239Y0116779D01*
X0012600Y0115235D01*
X0012600Y0108365D01*
X0013239Y0106821D01*
X0014421Y0105639D01*
X0015965Y0105000D01*
X0017635Y0105000D01*
X0019179Y0105639D01*
X0020361Y0106821D01*
X0021000Y0108365D01*
X0021000Y0115235D01*
X0020361Y0116779D01*
X0019179Y0117961D01*
X0017635Y0118600D01*
X0015965Y0118600D01*
X0017898Y0118491D02*
X0025702Y0118491D01*
X0025965Y0118600D02*
X0024421Y0117961D01*
X0023239Y0116779D01*
X0022600Y0115235D01*
X0022600Y0108365D01*
X0023239Y0106821D01*
X0024421Y0105639D01*
X0025965Y0105000D01*
X0027635Y0105000D01*
X0029179Y0105639D01*
X0030361Y0106821D01*
X0031000Y0108365D01*
X0031000Y0115235D01*
X0030361Y0116779D01*
X0029179Y0117961D01*
X0027635Y0118600D01*
X0025965Y0118600D01*
X0027898Y0118491D02*
X0035702Y0118491D01*
X0035965Y0118600D02*
X0034421Y0117961D01*
X0033239Y0116779D01*
X0032600Y0115235D01*
X0032600Y0108365D01*
X0033239Y0106821D01*
X0034421Y0105639D01*
X0035965Y0105000D01*
X0037635Y0105000D01*
X0039179Y0105639D01*
X0040361Y0106821D01*
X0041000Y0108365D01*
X0041000Y0115235D01*
X0040361Y0116779D01*
X0039179Y0117961D01*
X0037635Y0118600D01*
X0035965Y0118600D01*
X0037898Y0118491D02*
X0045702Y0118491D01*
X0045965Y0118600D02*
X0044421Y0117961D01*
X0043239Y0116779D01*
X0042600Y0115235D01*
X0042600Y0108365D01*
X0043239Y0106821D01*
X0044421Y0105639D01*
X0045965Y0105000D01*
X0047635Y0105000D01*
X0049179Y0105639D01*
X0050361Y0106821D01*
X0051000Y0108365D01*
X0051000Y0115235D01*
X0050361Y0116779D01*
X0049179Y0117961D01*
X0047635Y0118600D01*
X0045965Y0118600D01*
X0047898Y0118491D02*
X0055702Y0118491D01*
X0055965Y0118600D02*
X0054421Y0117961D01*
X0053239Y0116779D01*
X0052600Y0115235D01*
X0052600Y0108365D01*
X0053239Y0106821D01*
X0054421Y0105639D01*
X0055965Y0105000D01*
X0057635Y0105000D01*
X0059179Y0105639D01*
X0060361Y0106821D01*
X0061000Y0108365D01*
X0061000Y0115235D01*
X0060361Y0116779D01*
X0059179Y0117961D01*
X0057635Y0118600D01*
X0055965Y0118600D01*
X0057898Y0118491D02*
X0065702Y0118491D01*
X0065965Y0118600D02*
X0064421Y0117961D01*
X0063239Y0116779D01*
X0062600Y0115235D01*
X0062600Y0108365D01*
X0063239Y0106821D01*
X0064421Y0105639D01*
X0065965Y0105000D01*
X0067635Y0105000D01*
X0069179Y0105639D01*
X0070361Y0106821D01*
X0071000Y0108365D01*
X0071000Y0115235D01*
X0070361Y0116779D01*
X0069179Y0117961D01*
X0067635Y0118600D01*
X0065965Y0118600D01*
X0067898Y0118491D02*
X0075153Y0118491D01*
X0075111Y0118478D02*
X0074494Y0118163D01*
X0073934Y0117756D01*
X0073444Y0117266D01*
X0073037Y0116706D01*
X0072722Y0116089D01*
X0072508Y0115430D01*
X0072400Y0114746D01*
X0072400Y0111800D01*
X0076800Y0111800D01*
X0081200Y0111800D01*
X0081200Y0114746D01*
X0081092Y0115430D01*
X0080878Y0116089D01*
X0080563Y0116706D01*
X0080156Y0117266D01*
X0079666Y0117756D01*
X0079106Y0118163D01*
X0078489Y0118478D01*
X0077830Y0118692D01*
X0077146Y0118800D01*
X0076800Y0118800D01*
X0076800Y0111800D01*
X0076800Y0111800D01*
X0076800Y0111800D01*
X0081200Y0111800D01*
X0081200Y0108854D01*
X0081092Y0108170D01*
X0080878Y0107511D01*
X0080563Y0106894D01*
X0080156Y0106334D01*
X0079666Y0105844D01*
X0079106Y0105437D01*
X0078489Y0105122D01*
X0077830Y0104908D01*
X0077146Y0104800D01*
X0076800Y0104800D01*
X0076800Y0111800D01*
X0076800Y0111800D01*
X0076800Y0111800D01*
X0076800Y0118800D01*
X0076454Y0118800D01*
X0075770Y0118692D01*
X0075111Y0118478D01*
X0076800Y0118491D02*
X0076800Y0118491D01*
X0076800Y0116893D02*
X0076800Y0116893D01*
X0076800Y0115294D02*
X0076800Y0115294D01*
X0076800Y0113696D02*
X0076800Y0113696D01*
X0076800Y0112097D02*
X0076800Y0112097D01*
X0076800Y0111800D02*
X0072400Y0111800D01*
X0072400Y0108854D01*
X0072508Y0108170D01*
X0072722Y0107511D01*
X0073037Y0106894D01*
X0073444Y0106334D01*
X0073934Y0105844D01*
X0074494Y0105437D01*
X0075111Y0105122D01*
X0075770Y0104908D01*
X0076454Y0104800D01*
X0076800Y0104800D01*
X0076800Y0111800D01*
X0076800Y0110499D02*
X0076800Y0110499D01*
X0076800Y0108900D02*
X0076800Y0108900D01*
X0076800Y0107302D02*
X0076800Y0107302D01*
X0076800Y0105703D02*
X0076800Y0105703D01*
X0079473Y0105703D02*
X0084357Y0105703D01*
X0084421Y0105639D02*
X0083239Y0106821D01*
X0082600Y0108365D01*
X0082600Y0115235D01*
X0083239Y0116779D01*
X0084421Y0117961D01*
X0085965Y0118600D01*
X0087635Y0118600D01*
X0089179Y0117961D01*
X0090361Y0116779D01*
X0091000Y0115235D01*
X0091000Y0108365D01*
X0090361Y0106821D01*
X0089179Y0105639D01*
X0087635Y0105000D01*
X0085965Y0105000D01*
X0084421Y0105639D01*
X0083040Y0107302D02*
X0080771Y0107302D01*
X0081200Y0108900D02*
X0082600Y0108900D01*
X0082600Y0110499D02*
X0081200Y0110499D01*
X0081200Y0112097D02*
X0082600Y0112097D01*
X0082600Y0113696D02*
X0081200Y0113696D01*
X0081113Y0115294D02*
X0082624Y0115294D01*
X0083353Y0116893D02*
X0080428Y0116893D01*
X0078447Y0118491D02*
X0085702Y0118491D01*
X0087898Y0118491D02*
X0095702Y0118491D01*
X0095965Y0118600D02*
X0094421Y0117961D01*
X0093239Y0116779D01*
X0092600Y0115235D01*
X0092600Y0108365D01*
X0093239Y0106821D01*
X0094421Y0105639D01*
X0095965Y0105000D01*
X0097635Y0105000D01*
X0099179Y0105639D01*
X0100361Y0106821D01*
X0101000Y0108365D01*
X0101000Y0115235D01*
X0100361Y0116779D01*
X0099179Y0117961D01*
X0097635Y0118600D01*
X0095965Y0118600D01*
X0097898Y0118491D02*
X0105702Y0118491D01*
X0105965Y0118600D02*
X0104421Y0117961D01*
X0103239Y0116779D01*
X0102600Y0115235D01*
X0102600Y0108365D01*
X0103239Y0106821D01*
X0104421Y0105639D01*
X0105965Y0105000D01*
X0107635Y0105000D01*
X0109179Y0105639D01*
X0110361Y0106821D01*
X0111000Y0108365D01*
X0111000Y0115235D01*
X0110361Y0116779D01*
X0109179Y0117961D01*
X0107635Y0118600D01*
X0105965Y0118600D01*
X0107898Y0118491D02*
X0115702Y0118491D01*
X0115965Y0118600D02*
X0114421Y0117961D01*
X0113239Y0116779D01*
X0112600Y0115235D01*
X0112600Y0108365D01*
X0113239Y0106821D01*
X0114421Y0105639D01*
X0115965Y0105000D01*
X0117635Y0105000D01*
X0119179Y0105639D01*
X0120361Y0106821D01*
X0121000Y0108365D01*
X0121000Y0115235D01*
X0120361Y0116779D01*
X0119179Y0117961D01*
X0117635Y0118600D01*
X0115965Y0118600D01*
X0117898Y0118491D02*
X0124310Y0118491D01*
X0123353Y0116893D02*
X0120247Y0116893D01*
X0120976Y0115294D02*
X0122624Y0115294D01*
X0122600Y0113696D02*
X0121000Y0113696D01*
X0121000Y0112097D02*
X0122600Y0112097D01*
X0122600Y0110499D02*
X0121000Y0110499D01*
X0121000Y0108900D02*
X0122600Y0108900D01*
X0123040Y0107302D02*
X0120560Y0107302D01*
X0119243Y0105703D02*
X0124357Y0105703D01*
X0125060Y0103000D02*
X0122600Y0100540D01*
X0122600Y0097060D01*
X0125060Y0094600D01*
X0128540Y0094600D01*
X0131000Y0097060D01*
X0131000Y0100540D01*
X0128540Y0103000D01*
X0125060Y0103000D01*
X0124567Y0102506D02*
X0006600Y0102506D01*
X0006600Y0100908D02*
X0080965Y0100908D01*
X0081127Y0100975D02*
X0079593Y0100339D01*
X0078418Y0099165D01*
X0077783Y0097630D01*
X0077783Y0095970D01*
X0078418Y0094435D01*
X0079593Y0093261D01*
X0081127Y0092625D01*
X0082788Y0092625D01*
X0084322Y0093261D01*
X0085497Y0094435D01*
X0086132Y0095970D01*
X0086132Y0097630D01*
X0085497Y0099165D01*
X0084322Y0100339D01*
X0082788Y0100975D01*
X0081127Y0100975D01*
X0082950Y0100908D02*
X0090285Y0100908D01*
X0090121Y0100854D02*
X0089507Y0100542D01*
X0088950Y0100137D01*
X0088463Y0099650D01*
X0088058Y0099093D01*
X0087746Y0098479D01*
X0087533Y0097824D01*
X0087425Y0097144D01*
X0087425Y0096800D01*
X0091800Y0096800D01*
X0096175Y0096800D01*
X0096175Y0097144D01*
X0096067Y0097824D01*
X0095854Y0098479D01*
X0095542Y0099093D01*
X0095137Y0099650D01*
X0094650Y0100137D01*
X0094093Y0100542D01*
X0093479Y0100854D01*
X0092824Y0101067D01*
X0092144Y0101175D01*
X0091800Y0101175D01*
X0091800Y0096800D01*
X0091800Y0096800D01*
X0091800Y0096800D01*
X0096175Y0096800D01*
X0096175Y0096456D01*
X0096067Y0095776D01*
X0095854Y0095121D01*
X0095542Y0094507D01*
X0095137Y0093950D01*
X0094650Y0093463D01*
X0094093Y0093058D01*
X0093479Y0092746D01*
X0092824Y0092533D01*
X0092144Y0092425D01*
X0091800Y0092425D01*
X0091800Y0096800D01*
X0091800Y0096800D01*
X0091800Y0096800D01*
X0091800Y0101175D01*
X0091456Y0101175D01*
X0090776Y0101067D01*
X0090121Y0100854D01*
X0091800Y0100908D02*
X0091800Y0100908D01*
X0093315Y0100908D02*
X0100650Y0100908D01*
X0100812Y0100975D02*
X0099278Y0100339D01*
X0098103Y0099165D01*
X0097468Y0097630D01*
X0097468Y0095970D01*
X0098103Y0094435D01*
X0099278Y0093261D01*
X0100812Y0092625D01*
X0102473Y0092625D01*
X0104007Y0093261D01*
X0105182Y0094435D01*
X0105817Y0095970D01*
X0105817Y0097630D01*
X0105182Y0099165D01*
X0104007Y0100339D01*
X0102473Y0100975D01*
X0100812Y0100975D01*
X0102635Y0100908D02*
X0122968Y0100908D01*
X0122600Y0099309D02*
X0105037Y0099309D01*
X0105784Y0097711D02*
X0122600Y0097711D01*
X0123548Y0096112D02*
X0105817Y0096112D01*
X0105214Y0094514D02*
X0134864Y0094514D01*
X0134977Y0094400D02*
X0136800Y0094400D01*
X0138623Y0094400D01*
X0141200Y0096977D01*
X0141200Y0098800D01*
X0141200Y0100623D01*
X0138623Y0103200D01*
X0136800Y0103200D01*
X0136800Y0098800D01*
X0141200Y0098800D01*
X0136800Y0098800D01*
X0136800Y0098800D01*
X0136800Y0098800D01*
X0136800Y0094400D01*
X0136800Y0098800D01*
X0136800Y0098800D01*
X0136800Y0098800D01*
X0132400Y0098800D01*
X0132400Y0100623D01*
X0134977Y0103200D01*
X0136800Y0103200D01*
X0136800Y0098800D01*
X0132400Y0098800D01*
X0132400Y0096977D01*
X0134977Y0094400D01*
X0136800Y0094514D02*
X0136800Y0094514D01*
X0136800Y0096112D02*
X0136800Y0096112D01*
X0136800Y0097711D02*
X0136800Y0097711D01*
X0136800Y0099309D02*
X0136800Y0099309D01*
X0136800Y0100908D02*
X0136800Y0100908D01*
X0136800Y0102506D02*
X0136800Y0102506D01*
X0139316Y0102506D02*
X0173708Y0102506D01*
X0172109Y0100908D02*
X0140915Y0100908D01*
X0141200Y0099309D02*
X0160087Y0099309D01*
X0161037Y0100260D02*
X0158460Y0097683D01*
X0158460Y0095860D01*
X0162860Y0095860D01*
X0167260Y0095860D01*
X0167260Y0097683D01*
X0164683Y0100260D01*
X0162860Y0100260D01*
X0162860Y0095860D01*
X0162860Y0095860D01*
X0162860Y0095860D01*
X0167260Y0095860D01*
X0167260Y0094037D01*
X0164683Y0091460D01*
X0162860Y0091460D01*
X0162860Y0095860D01*
X0162860Y0095860D01*
X0162860Y0095860D01*
X0162860Y0100260D01*
X0161037Y0100260D01*
X0162860Y0099309D02*
X0162860Y0099309D01*
X0162860Y0097711D02*
X0162860Y0097711D01*
X0162860Y0096112D02*
X0162860Y0096112D01*
X0162860Y0095860D02*
X0158460Y0095860D01*
X0158460Y0094037D01*
X0161037Y0091460D01*
X0162860Y0091460D01*
X0162860Y0095860D01*
X0162860Y0094514D02*
X0162860Y0094514D01*
X0162860Y0092915D02*
X0162860Y0092915D01*
X0166138Y0092915D02*
X0169865Y0092915D01*
X0168660Y0094514D02*
X0167260Y0094514D01*
X0167260Y0096112D02*
X0168660Y0096112D01*
X0168771Y0097711D02*
X0167232Y0097711D01*
X0165633Y0099309D02*
X0170370Y0099309D01*
X0175306Y0104105D02*
X0006600Y0104105D01*
X0009243Y0105703D02*
X0014357Y0105703D01*
X0013040Y0107302D02*
X0010560Y0107302D01*
X0011000Y0108900D02*
X0012600Y0108900D01*
X0012600Y0110499D02*
X0011000Y0110499D01*
X0011000Y0112097D02*
X0012600Y0112097D01*
X0012600Y0113696D02*
X0011000Y0113696D01*
X0010976Y0115294D02*
X0012624Y0115294D01*
X0013353Y0116893D02*
X0010247Y0116893D01*
X0020247Y0116893D02*
X0023353Y0116893D01*
X0022624Y0115294D02*
X0020976Y0115294D01*
X0021000Y0113696D02*
X0022600Y0113696D01*
X0022600Y0112097D02*
X0021000Y0112097D01*
X0021000Y0110499D02*
X0022600Y0110499D01*
X0022600Y0108900D02*
X0021000Y0108900D01*
X0020560Y0107302D02*
X0023040Y0107302D01*
X0024357Y0105703D02*
X0019243Y0105703D01*
X0018540Y0096000D02*
X0015060Y0096000D01*
X0012600Y0093540D01*
X0012600Y0090060D01*
X0015060Y0087600D01*
X0018540Y0087600D01*
X0021000Y0090060D01*
X0021000Y0093540D01*
X0018540Y0096000D01*
X0020026Y0094514D02*
X0053574Y0094514D01*
X0052600Y0092915D02*
X0021000Y0092915D01*
X0021000Y0091317D02*
X0052600Y0091317D01*
X0052942Y0089718D02*
X0020658Y0089718D01*
X0019059Y0088120D02*
X0054541Y0088120D01*
X0056281Y0086521D02*
X0006600Y0086521D01*
X0006600Y0084923D02*
X0019981Y0084923D01*
X0018555Y0083324D02*
X0006600Y0083324D01*
X0006600Y0081726D02*
X0018219Y0081726D01*
X0018617Y0080127D02*
X0006600Y0080127D01*
X0006600Y0078529D02*
X0019400Y0078529D01*
X0020276Y0076930D02*
X0006600Y0076930D01*
X0006600Y0075332D02*
X0021874Y0075332D01*
X0023473Y0073733D02*
X0006600Y0073733D01*
X0006600Y0072134D02*
X0025071Y0072134D01*
X0026670Y0070536D02*
X0006600Y0070536D01*
X0006600Y0068937D02*
X0028268Y0068937D01*
X0029867Y0067339D02*
X0006600Y0067339D01*
X0006600Y0065740D02*
X0031465Y0065740D01*
X0033064Y0064142D02*
X0006600Y0064142D01*
X0006600Y0062543D02*
X0034662Y0062543D01*
X0036261Y0060945D02*
X0028043Y0060945D01*
X0028322Y0060854D02*
X0027667Y0061067D01*
X0026987Y0061175D01*
X0026643Y0061175D01*
X0026643Y0056800D01*
X0031017Y0056800D01*
X0026643Y0056800D01*
X0026643Y0056800D01*
X0026643Y0052425D01*
X0026987Y0052425D01*
X0027667Y0052533D01*
X0028322Y0052746D01*
X0028935Y0053058D01*
X0029493Y0053463D01*
X0029979Y0053950D01*
X0030384Y0054507D01*
X0030697Y0055121D01*
X0030910Y0055776D01*
X0031017Y0056456D01*
X0031017Y0056800D01*
X0031017Y0057144D01*
X0030910Y0057824D01*
X0030697Y0058479D01*
X0030384Y0059093D01*
X0029979Y0059650D01*
X0029493Y0060137D01*
X0028935Y0060542D01*
X0028322Y0060854D01*
X0026643Y0060945D02*
X0026642Y0060945D01*
X0026642Y0061175D02*
X0026298Y0061175D01*
X0025618Y0061067D01*
X0024963Y0060854D01*
X0024350Y0060542D01*
X0023793Y0060137D01*
X0023306Y0059650D01*
X0022901Y0059093D01*
X0022588Y0058479D01*
X0022375Y0057824D01*
X0022268Y0057144D01*
X0022268Y0056800D01*
X0022268Y0056456D01*
X0022375Y0055776D01*
X0022588Y0055121D01*
X0022901Y0054507D01*
X0023306Y0053950D01*
X0023793Y0053463D01*
X0024350Y0053058D01*
X0024963Y0052746D01*
X0025618Y0052533D01*
X0026298Y0052425D01*
X0026642Y0052425D01*
X0026642Y0056800D01*
X0022268Y0056800D01*
X0026642Y0056800D01*
X0026642Y0056800D01*
X0026643Y0056800D01*
X0026642Y0056800D01*
X0026642Y0061175D01*
X0025242Y0060945D02*
X0007860Y0060945D01*
X0010315Y0059346D02*
X0023085Y0059346D01*
X0022363Y0057748D02*
X0011084Y0057748D01*
X0011132Y0056149D02*
X0022316Y0056149D01*
X0022879Y0054551D02*
X0010545Y0054551D01*
X0008578Y0052952D02*
X0024558Y0052952D01*
X0026642Y0052952D02*
X0026643Y0052952D01*
X0026642Y0054551D02*
X0026643Y0054551D01*
X0026642Y0056149D02*
X0026643Y0056149D01*
X0026642Y0057748D02*
X0026643Y0057748D01*
X0026642Y0059346D02*
X0026643Y0059346D01*
X0030200Y0059346D02*
X0037859Y0059346D01*
X0039458Y0057748D02*
X0030922Y0057748D01*
X0030969Y0056149D02*
X0041056Y0056149D01*
X0042655Y0054551D02*
X0030406Y0054551D01*
X0028727Y0052952D02*
X0044254Y0052952D01*
X0045852Y0051354D02*
X0006600Y0051354D01*
X0006600Y0049755D02*
X0047451Y0049755D01*
X0049049Y0048157D02*
X0006600Y0048157D01*
X0006600Y0046558D02*
X0050648Y0046558D01*
X0052246Y0044960D02*
X0006600Y0044960D01*
X0006600Y0043361D02*
X0053845Y0043361D01*
X0055443Y0041763D02*
X0006600Y0041763D01*
X0006600Y0040164D02*
X0057042Y0040164D01*
X0058640Y0038566D02*
X0006600Y0038566D01*
X0006600Y0036967D02*
X0060239Y0036967D01*
X0060400Y0035369D02*
X0006600Y0035369D01*
X0006600Y0033770D02*
X0060400Y0033770D01*
X0060400Y0032172D02*
X0006600Y0032172D01*
X0006600Y0030573D02*
X0060400Y0030573D01*
X0060400Y0028975D02*
X0054690Y0028975D01*
X0055381Y0027376D02*
X0060400Y0027376D01*
X0060400Y0025778D02*
X0055253Y0025778D01*
X0054244Y0024179D02*
X0060400Y0024179D01*
X0060400Y0022581D02*
X0020975Y0022581D01*
X0022573Y0024179D02*
X0049356Y0024179D01*
X0051800Y0026800D02*
X0021800Y0026800D01*
X0016800Y0021800D01*
X0016800Y0006800D01*
X0014034Y0011391D02*
X0009566Y0011391D01*
X0011297Y0009793D02*
X0012303Y0009793D01*
X0014400Y0012990D02*
X0006600Y0012990D01*
X0006600Y0014588D02*
X0014400Y0014588D01*
X0014400Y0016187D02*
X0006600Y0016187D01*
X0006600Y0017785D02*
X0014400Y0017785D01*
X0014400Y0019384D02*
X0006600Y0019384D01*
X0006600Y0020982D02*
X0014400Y0020982D01*
X0014526Y0022581D02*
X0006600Y0022581D01*
X0006600Y0024179D02*
X0015785Y0024179D01*
X0017384Y0025778D02*
X0006600Y0025778D01*
X0006600Y0027376D02*
X0018982Y0027376D01*
X0020779Y0028975D02*
X0006600Y0028975D01*
X0019376Y0020982D02*
X0060400Y0020982D01*
X0060400Y0019384D02*
X0019200Y0019384D01*
X0019200Y0017785D02*
X0060400Y0017785D01*
X0060400Y0016187D02*
X0019200Y0016187D01*
X0019200Y0014588D02*
X0060400Y0014588D01*
X0060400Y0012990D02*
X0019200Y0012990D01*
X0019566Y0011391D02*
X0023762Y0011391D01*
X0022176Y0009793D02*
X0021297Y0009793D01*
X0026600Y0009793D02*
X0027000Y0009793D01*
X0027000Y0011391D02*
X0026600Y0011391D01*
X0026600Y0008194D02*
X0027000Y0008194D01*
X0029838Y0011391D02*
X0034034Y0011391D01*
X0032303Y0009793D02*
X0031424Y0009793D01*
X0039566Y0011391D02*
X0044034Y0011391D01*
X0042303Y0009793D02*
X0041297Y0009793D01*
X0049566Y0011391D02*
X0060034Y0011391D01*
X0058303Y0009793D02*
X0051297Y0009793D01*
X0051959Y0008194D02*
X0057641Y0008194D01*
X0062800Y0006800D02*
X0062800Y0037800D01*
X0021800Y0078800D01*
X0021800Y0081800D01*
X0025381Y0081726D02*
X0028219Y0081726D01*
X0028555Y0083324D02*
X0025045Y0083324D01*
X0023619Y0084923D02*
X0029981Y0084923D01*
X0031800Y0081800D02*
X0031800Y0078800D01*
X0072800Y0037800D01*
X0072800Y0006800D01*
X0070034Y0011391D02*
X0065566Y0011391D01*
X0065200Y0012990D02*
X0070400Y0012990D01*
X0070400Y0014588D02*
X0065200Y0014588D01*
X0065200Y0016187D02*
X0070400Y0016187D01*
X0070400Y0017785D02*
X0065200Y0017785D01*
X0065200Y0019384D02*
X0070400Y0019384D01*
X0070400Y0020982D02*
X0065200Y0020982D01*
X0065200Y0022581D02*
X0070400Y0022581D01*
X0070400Y0024179D02*
X0065200Y0024179D01*
X0065200Y0025778D02*
X0070400Y0025778D01*
X0070400Y0027376D02*
X0065200Y0027376D01*
X0065200Y0028975D02*
X0070400Y0028975D01*
X0070400Y0030573D02*
X0065200Y0030573D01*
X0065200Y0032172D02*
X0070400Y0032172D01*
X0070400Y0033770D02*
X0065200Y0033770D01*
X0065200Y0035369D02*
X0070400Y0035369D01*
X0070239Y0036967D02*
X0065200Y0036967D01*
X0065081Y0038566D02*
X0068640Y0038566D01*
X0067042Y0040164D02*
X0063830Y0040164D01*
X0062231Y0041763D02*
X0065443Y0041763D01*
X0063845Y0043361D02*
X0060633Y0043361D01*
X0059034Y0044960D02*
X0062246Y0044960D01*
X0060648Y0046558D02*
X0057436Y0046558D01*
X0055837Y0048157D02*
X0059049Y0048157D01*
X0057451Y0049755D02*
X0054239Y0049755D01*
X0052640Y0051354D02*
X0055852Y0051354D01*
X0054254Y0052952D02*
X0051042Y0052952D01*
X0049443Y0054551D02*
X0052655Y0054551D01*
X0051056Y0056149D02*
X0047845Y0056149D01*
X0046246Y0057748D02*
X0049458Y0057748D01*
X0047859Y0059346D02*
X0044648Y0059346D01*
X0043049Y0060945D02*
X0046261Y0060945D01*
X0044662Y0062543D02*
X0041451Y0062543D01*
X0039852Y0064142D02*
X0043064Y0064142D01*
X0041465Y0065740D02*
X0038254Y0065740D01*
X0036655Y0067339D02*
X0039867Y0067339D01*
X0038268Y0068937D02*
X0035057Y0068937D01*
X0033458Y0070536D02*
X0036670Y0070536D01*
X0035071Y0072134D02*
X0031860Y0072134D01*
X0030261Y0073733D02*
X0033473Y0073733D01*
X0031874Y0075332D02*
X0028663Y0075332D01*
X0027064Y0076930D02*
X0030276Y0076930D01*
X0029400Y0078529D02*
X0025466Y0078529D01*
X0024983Y0080127D02*
X0028617Y0080127D01*
X0034983Y0080127D02*
X0050474Y0080127D01*
X0048640Y0078529D02*
X0035466Y0078529D01*
X0037064Y0076930D02*
X0048219Y0076930D01*
X0048532Y0075332D02*
X0038663Y0075332D01*
X0040261Y0073733D02*
X0049846Y0073733D01*
X0051800Y0076800D02*
X0061800Y0086800D01*
X0063082Y0091317D02*
X0185136Y0091317D01*
X0185202Y0091111D02*
X0185517Y0090494D01*
X0185924Y0089934D01*
X0186414Y0089444D01*
X0186974Y0089037D01*
X0187591Y0088722D01*
X0188250Y0088508D01*
X0188934Y0088400D01*
X0191880Y0088400D01*
X0191880Y0092800D01*
X0191880Y0092800D01*
X0191880Y0092800D01*
X0184880Y0092800D01*
X0184880Y0093146D01*
X0184988Y0093830D01*
X0185202Y0094489D01*
X0185517Y0095106D01*
X0185924Y0095666D01*
X0186414Y0096156D01*
X0186974Y0096563D01*
X0187591Y0096878D01*
X0188250Y0097092D01*
X0188934Y0097200D01*
X0191880Y0097200D01*
X0191880Y0092800D01*
X0184880Y0092800D01*
X0184880Y0092454D01*
X0184988Y0091770D01*
X0185202Y0091111D01*
X0186139Y0089718D02*
X0154680Y0089718D01*
X0155691Y0088120D02*
X0193850Y0088120D01*
X0193850Y0086521D02*
X0156930Y0086521D01*
X0159594Y0084923D02*
X0193850Y0084923D01*
X0193850Y0083324D02*
X0162258Y0083324D01*
X0164922Y0081726D02*
X0193850Y0081726D01*
X0193850Y0080127D02*
X0191867Y0080127D01*
X0193466Y0078529D02*
X0193850Y0078529D01*
X0191800Y0076800D02*
X0189300Y0079300D01*
X0164300Y0079300D01*
X0151800Y0086800D01*
X0155593Y0081726D02*
X0060120Y0081726D01*
X0058521Y0080127D02*
X0158257Y0080127D01*
X0160921Y0078529D02*
X0056923Y0078529D01*
X0055381Y0076930D02*
X0163750Y0076930D01*
X0163540Y0076000D02*
X0165340Y0074200D01*
X0178260Y0074200D01*
X0180060Y0076000D01*
X0183540Y0076000D01*
X0186000Y0073540D01*
X0186000Y0070060D01*
X0183540Y0067600D01*
X0180060Y0067600D01*
X0178260Y0069400D01*
X0165340Y0069400D01*
X0163540Y0067600D01*
X0160060Y0067600D01*
X0157600Y0070060D01*
X0157600Y0073540D01*
X0160060Y0076000D01*
X0163540Y0076000D01*
X0164208Y0075332D02*
X0179392Y0075332D01*
X0181800Y0071800D02*
X0161800Y0071800D01*
X0164877Y0068937D02*
X0178723Y0068937D01*
X0184877Y0068937D02*
X0188723Y0068937D01*
X0187600Y0070536D02*
X0186000Y0070536D01*
X0186000Y0072134D02*
X0187600Y0072134D01*
X0187793Y0073733D02*
X0185807Y0073733D01*
X0184208Y0075332D02*
X0189392Y0075332D01*
X0191800Y0076800D02*
X0191800Y0071800D01*
X0193850Y0067339D02*
X0046655Y0067339D01*
X0045057Y0068937D02*
X0118440Y0068937D01*
X0117400Y0069977D02*
X0119977Y0067400D01*
X0121800Y0067400D01*
X0123623Y0067400D01*
X0126200Y0069977D01*
X0126200Y0071800D01*
X0126200Y0073623D01*
X0123623Y0076200D01*
X0121800Y0076200D01*
X0121800Y0071800D01*
X0126200Y0071800D01*
X0121800Y0071800D01*
X0121800Y0071800D01*
X0121800Y0071800D01*
X0121800Y0067400D01*
X0121800Y0071800D01*
X0121800Y0071800D01*
X0121800Y0071800D01*
X0117400Y0071800D01*
X0117400Y0073623D01*
X0119977Y0076200D01*
X0121800Y0076200D01*
X0121800Y0071800D01*
X0117400Y0071800D01*
X0117400Y0069977D01*
X0117400Y0070536D02*
X0043458Y0070536D01*
X0041860Y0072134D02*
X0117400Y0072134D01*
X0117510Y0073733D02*
X0053753Y0073733D01*
X0055068Y0075332D02*
X0119109Y0075332D01*
X0121800Y0075332D02*
X0121800Y0075332D01*
X0121800Y0073733D02*
X0121800Y0073733D01*
X0121800Y0072134D02*
X0121800Y0072134D01*
X0121800Y0070536D02*
X0121800Y0070536D01*
X0121800Y0068937D02*
X0121800Y0068937D01*
X0125160Y0068937D02*
X0158723Y0068937D01*
X0157600Y0070536D02*
X0126200Y0070536D01*
X0126200Y0072134D02*
X0157600Y0072134D01*
X0157793Y0073733D02*
X0126090Y0073733D01*
X0124491Y0075332D02*
X0159392Y0075332D01*
X0159582Y0092915D02*
X0103173Y0092915D01*
X0100112Y0092915D02*
X0093812Y0092915D01*
X0091800Y0092915D02*
X0091800Y0092915D01*
X0091800Y0092425D02*
X0091800Y0096800D01*
X0087425Y0096800D01*
X0087425Y0096456D01*
X0087533Y0095776D01*
X0087746Y0095121D01*
X0088058Y0094507D01*
X0088463Y0093950D01*
X0088950Y0093463D01*
X0089507Y0093058D01*
X0090121Y0092746D01*
X0090776Y0092533D01*
X0091456Y0092425D01*
X0091800Y0092425D01*
X0089788Y0092915D02*
X0083488Y0092915D01*
X0085529Y0094514D02*
X0088055Y0094514D01*
X0087480Y0096112D02*
X0086132Y0096112D01*
X0086099Y0097711D02*
X0087515Y0097711D01*
X0088215Y0099309D02*
X0085352Y0099309D01*
X0091800Y0099309D02*
X0091800Y0099309D01*
X0091800Y0097711D02*
X0091800Y0097711D01*
X0091800Y0096112D02*
X0091800Y0096112D01*
X0091800Y0094514D02*
X0091800Y0094514D01*
X0095545Y0094514D02*
X0098071Y0094514D01*
X0097468Y0096112D02*
X0096120Y0096112D01*
X0096085Y0097711D02*
X0097501Y0097711D01*
X0098248Y0099309D02*
X0095385Y0099309D01*
X0094357Y0105703D02*
X0089243Y0105703D01*
X0090560Y0107302D02*
X0093040Y0107302D01*
X0092600Y0108900D02*
X0091000Y0108900D01*
X0091000Y0110499D02*
X0092600Y0110499D01*
X0092600Y0112097D02*
X0091000Y0112097D01*
X0091000Y0113696D02*
X0092600Y0113696D01*
X0092624Y0115294D02*
X0090976Y0115294D01*
X0090247Y0116893D02*
X0093353Y0116893D01*
X0100247Y0116893D02*
X0103353Y0116893D01*
X0102624Y0115294D02*
X0100976Y0115294D01*
X0101000Y0113696D02*
X0102600Y0113696D01*
X0102600Y0112097D02*
X0101000Y0112097D01*
X0101000Y0110499D02*
X0102600Y0110499D01*
X0102600Y0108900D02*
X0101000Y0108900D01*
X0100560Y0107302D02*
X0103040Y0107302D01*
X0104357Y0105703D02*
X0099243Y0105703D01*
X0109243Y0105703D02*
X0114357Y0105703D01*
X0113040Y0107302D02*
X0110560Y0107302D01*
X0111000Y0108900D02*
X0112600Y0108900D01*
X0112600Y0110499D02*
X0111000Y0110499D01*
X0111000Y0112097D02*
X0112600Y0112097D01*
X0112600Y0113696D02*
X0111000Y0113696D01*
X0110976Y0115294D02*
X0112624Y0115294D01*
X0113353Y0116893D02*
X0110247Y0116893D01*
X0115965Y0135000D02*
X0114421Y0135639D01*
X0113239Y0136821D01*
X0112600Y0138365D01*
X0112600Y0145235D01*
X0113239Y0146779D01*
X0114421Y0147961D01*
X0115965Y0148600D01*
X0117635Y0148600D01*
X0119179Y0147961D01*
X0120361Y0146779D01*
X0121000Y0145235D01*
X0121000Y0138365D01*
X0120361Y0136821D01*
X0119179Y0135639D01*
X0117635Y0135000D01*
X0115965Y0135000D01*
X0113985Y0136075D02*
X0109615Y0136075D01*
X0110714Y0137673D02*
X0112886Y0137673D01*
X0112600Y0139272D02*
X0111000Y0139272D01*
X0111000Y0140870D02*
X0112600Y0140870D01*
X0112600Y0142469D02*
X0111000Y0142469D01*
X0111000Y0144068D02*
X0112600Y0144068D01*
X0112778Y0145666D02*
X0110822Y0145666D01*
X0109875Y0147265D02*
X0113725Y0147265D01*
X0119875Y0147265D02*
X0123725Y0147265D01*
X0123239Y0146779D02*
X0122600Y0145235D01*
X0122600Y0138365D01*
X0123239Y0136821D01*
X0124421Y0135639D01*
X0125965Y0135000D01*
X0127635Y0135000D01*
X0129179Y0135639D01*
X0130361Y0136821D01*
X0131000Y0138365D01*
X0131000Y0145235D01*
X0130361Y0146779D01*
X0129179Y0147961D01*
X0127635Y0148600D01*
X0125965Y0148600D01*
X0124421Y0147961D01*
X0123239Y0146779D01*
X0122778Y0145666D02*
X0120822Y0145666D01*
X0121000Y0144068D02*
X0122600Y0144068D01*
X0122600Y0142469D02*
X0121000Y0142469D01*
X0121000Y0140870D02*
X0122600Y0140870D01*
X0122600Y0139272D02*
X0121000Y0139272D01*
X0120714Y0137673D02*
X0122886Y0137673D01*
X0123985Y0136075D02*
X0119615Y0136075D01*
X0129615Y0136075D02*
X0133985Y0136075D01*
X0132886Y0137673D02*
X0130714Y0137673D01*
X0131000Y0139272D02*
X0132600Y0139272D01*
X0132600Y0140870D02*
X0131000Y0140870D01*
X0131000Y0142469D02*
X0132600Y0142469D01*
X0132600Y0144068D02*
X0131000Y0144068D01*
X0130822Y0145666D02*
X0132778Y0145666D01*
X0133725Y0147265D02*
X0129875Y0147265D01*
X0139875Y0147265D02*
X0188305Y0147265D01*
X0186762Y0145666D02*
X0148180Y0145666D01*
X0150331Y0144068D02*
X0186125Y0144068D01*
X0186125Y0142469D02*
X0151929Y0142469D01*
X0153528Y0140870D02*
X0186825Y0140870D01*
X0186707Y0148863D02*
X0168927Y0148863D01*
X0170122Y0150462D02*
X0186125Y0150462D01*
X0186125Y0152060D02*
X0170381Y0152060D01*
X0169906Y0153659D02*
X0186117Y0153659D01*
X0184544Y0155257D02*
X0167812Y0155257D01*
X0165788Y0155257D02*
X0116000Y0155257D01*
X0116000Y0156856D02*
X0183882Y0156856D01*
X0183531Y0158454D02*
X0178080Y0158454D01*
X0179952Y0160053D02*
X0183531Y0160053D01*
X0184052Y0161651D02*
X0180381Y0161651D01*
X0180076Y0163250D02*
X0184930Y0163250D01*
X0186616Y0164848D02*
X0178799Y0164848D01*
X0178834Y0168045D02*
X0181065Y0168045D01*
X0173648Y0160053D02*
X0114487Y0160053D01*
X0116000Y0158454D02*
X0175520Y0158454D01*
X0158487Y0185629D02*
X0150126Y0185629D01*
X0148937Y0187227D02*
X0156806Y0187227D01*
X0145128Y0137673D02*
X0140714Y0137673D01*
X0139615Y0136075D02*
X0146727Y0136075D01*
X0140247Y0116893D02*
X0160670Y0116893D01*
X0160977Y0117200D02*
X0158400Y0114623D01*
X0158400Y0112800D01*
X0162800Y0112800D01*
X0162800Y0112800D01*
X0162800Y0112800D01*
X0167200Y0112800D01*
X0167200Y0110977D01*
X0164623Y0108400D01*
X0162800Y0108400D01*
X0162800Y0112800D01*
X0162800Y0112800D01*
X0162800Y0112800D01*
X0162800Y0117200D01*
X0160977Y0117200D01*
X0162800Y0116893D02*
X0162800Y0116893D01*
X0162800Y0115294D02*
X0162800Y0115294D01*
X0162800Y0113696D02*
X0162800Y0113696D01*
X0162800Y0112800D02*
X0158400Y0112800D01*
X0158400Y0110977D01*
X0160977Y0108400D01*
X0162800Y0108400D01*
X0162800Y0112800D01*
X0162800Y0112097D02*
X0162800Y0112097D01*
X0162800Y0110499D02*
X0162800Y0110499D01*
X0162800Y0108900D02*
X0162800Y0108900D01*
X0165123Y0108900D02*
X0170760Y0108900D01*
X0169162Y0110499D02*
X0166721Y0110499D01*
X0167200Y0112097D02*
X0168600Y0112097D01*
X0173907Y0118491D02*
X0193850Y0118491D01*
X0193850Y0120090D02*
X0172308Y0120090D01*
X0170710Y0121688D02*
X0186769Y0121688D01*
X0184993Y0123287D02*
X0169111Y0123287D01*
X0167513Y0124885D02*
X0184078Y0124885D01*
X0193831Y0121688D02*
X0193850Y0121688D01*
X0193850Y0107302D02*
X0140560Y0107302D01*
X0141000Y0108900D02*
X0160477Y0108900D01*
X0158879Y0110499D02*
X0141000Y0110499D01*
X0141000Y0112097D02*
X0158400Y0112097D01*
X0158400Y0113696D02*
X0141000Y0113696D01*
X0140976Y0115294D02*
X0159072Y0115294D01*
X0158488Y0097711D02*
X0141200Y0097711D01*
X0140335Y0096112D02*
X0158460Y0096112D01*
X0158460Y0094514D02*
X0138736Y0094514D01*
X0133265Y0096112D02*
X0130052Y0096112D01*
X0131000Y0097711D02*
X0132400Y0097711D01*
X0132400Y0099309D02*
X0131000Y0099309D01*
X0130632Y0100908D02*
X0132685Y0100908D01*
X0134284Y0102506D02*
X0129033Y0102506D01*
X0129243Y0105703D02*
X0134357Y0105703D01*
X0133040Y0107302D02*
X0130560Y0107302D01*
X0131000Y0108900D02*
X0132600Y0108900D01*
X0132600Y0110499D02*
X0131000Y0110499D01*
X0131000Y0112097D02*
X0132600Y0112097D01*
X0132600Y0113696D02*
X0131994Y0113696D01*
X0139243Y0105703D02*
X0176905Y0105703D01*
X0180509Y0097711D02*
X0193850Y0097711D01*
X0191880Y0096112D02*
X0191880Y0096112D01*
X0191880Y0094514D02*
X0191880Y0094514D01*
X0191880Y0092915D02*
X0191880Y0092915D01*
X0191880Y0091317D02*
X0191880Y0091317D01*
X0191880Y0089718D02*
X0191880Y0089718D01*
X0185215Y0094514D02*
X0177312Y0094514D01*
X0175855Y0092915D02*
X0184880Y0092915D01*
X0186370Y0096112D02*
X0178910Y0096112D01*
X0193850Y0065740D02*
X0048254Y0065740D01*
X0049852Y0064142D02*
X0114078Y0064142D01*
X0113232Y0062543D02*
X0051451Y0062543D01*
X0053049Y0060945D02*
X0113278Y0060945D01*
X0114189Y0059346D02*
X0054648Y0059346D01*
X0056246Y0057748D02*
X0187458Y0057748D01*
X0185859Y0059346D02*
X0119411Y0059346D01*
X0119977Y0056200D02*
X0117400Y0053623D01*
X0117400Y0051800D01*
X0121800Y0051800D01*
X0126200Y0051800D01*
X0126200Y0053623D01*
X0123623Y0056200D01*
X0121800Y0056200D01*
X0121800Y0051800D01*
X0121800Y0051800D01*
X0121800Y0051800D01*
X0126200Y0051800D01*
X0126200Y0049977D01*
X0123623Y0047400D01*
X0121800Y0047400D01*
X0121800Y0051800D01*
X0121800Y0051800D01*
X0121800Y0051800D01*
X0121800Y0056200D01*
X0119977Y0056200D01*
X0119927Y0056149D02*
X0057845Y0056149D01*
X0059443Y0054551D02*
X0118328Y0054551D01*
X0117400Y0052952D02*
X0061042Y0052952D01*
X0062640Y0051354D02*
X0117400Y0051354D01*
X0117400Y0051800D02*
X0117400Y0049977D01*
X0119977Y0047400D01*
X0121800Y0047400D01*
X0121800Y0051800D01*
X0117400Y0051800D01*
X0117622Y0049755D02*
X0064239Y0049755D01*
X0065837Y0048157D02*
X0119221Y0048157D01*
X0121800Y0048157D02*
X0121800Y0048157D01*
X0121800Y0049755D02*
X0121800Y0049755D01*
X0121800Y0051354D02*
X0121800Y0051354D01*
X0121800Y0052952D02*
X0121800Y0052952D01*
X0121800Y0054551D02*
X0121800Y0054551D01*
X0121800Y0056149D02*
X0121800Y0056149D01*
X0123673Y0056149D02*
X0189056Y0056149D01*
X0188611Y0054551D02*
X0184989Y0054551D01*
X0186000Y0053540D02*
X0183540Y0056000D01*
X0180060Y0056000D01*
X0178260Y0054200D01*
X0165340Y0054200D01*
X0163540Y0056000D01*
X0160060Y0056000D01*
X0157600Y0053540D01*
X0157600Y0050060D01*
X0160060Y0047600D01*
X0163540Y0047600D01*
X0165340Y0049400D01*
X0178260Y0049400D01*
X0180060Y0047600D01*
X0183540Y0047600D01*
X0186000Y0050060D01*
X0186000Y0053540D01*
X0186000Y0052952D02*
X0187600Y0052952D01*
X0187600Y0051354D02*
X0186000Y0051354D01*
X0185695Y0049755D02*
X0187905Y0049755D01*
X0189503Y0048157D02*
X0184097Y0048157D01*
X0181800Y0051800D02*
X0161800Y0051800D01*
X0164989Y0054551D02*
X0178611Y0054551D01*
X0179503Y0048157D02*
X0164097Y0048157D01*
X0159503Y0048157D02*
X0124379Y0048157D01*
X0125978Y0049755D02*
X0157905Y0049755D01*
X0157600Y0051354D02*
X0126200Y0051354D01*
X0126200Y0052952D02*
X0157600Y0052952D01*
X0158611Y0054551D02*
X0125272Y0054551D01*
X0116800Y0061800D02*
X0186800Y0061800D01*
X0191800Y0056800D01*
X0191800Y0051800D01*
X0193850Y0046558D02*
X0067436Y0046558D01*
X0069034Y0044960D02*
X0193850Y0044960D01*
X0193850Y0043361D02*
X0070633Y0043361D01*
X0072231Y0041763D02*
X0193850Y0041763D01*
X0193850Y0040164D02*
X0073830Y0040164D01*
X0075081Y0038566D02*
X0193850Y0038566D01*
X0193850Y0036967D02*
X0075200Y0036967D01*
X0075200Y0035369D02*
X0193850Y0035369D01*
X0193850Y0033770D02*
X0075200Y0033770D01*
X0075200Y0032172D02*
X0118732Y0032172D01*
X0117600Y0031040D02*
X0120060Y0033500D01*
X0123540Y0033500D01*
X0126000Y0031040D01*
X0126000Y0027560D01*
X0123540Y0025100D01*
X0120060Y0025100D01*
X0117600Y0027560D01*
X0117600Y0031040D01*
X0117600Y0030573D02*
X0075200Y0030573D01*
X0075200Y0028975D02*
X0103910Y0028975D01*
X0103764Y0028829D02*
X0103219Y0027512D01*
X0103219Y0026088D01*
X0103764Y0024771D01*
X0104771Y0023764D01*
X0106088Y0023219D01*
X0106987Y0023219D01*
X0110441Y0019765D01*
X0111323Y0019400D01*
X0159277Y0019400D01*
X0160159Y0019765D01*
X0160835Y0020441D01*
X0163159Y0022765D01*
X0163835Y0023441D01*
X0164200Y0024323D01*
X0164200Y0025760D01*
X0165340Y0026900D01*
X0169953Y0026900D01*
X0171093Y0025761D01*
X0172627Y0025125D01*
X0174288Y0025125D01*
X0175822Y0025761D01*
X0176997Y0026935D01*
X0177632Y0028470D01*
X0177632Y0030130D01*
X0176997Y0031665D01*
X0175822Y0032839D01*
X0174288Y0033475D01*
X0172627Y0033475D01*
X0171093Y0032839D01*
X0169953Y0031700D01*
X0165340Y0031700D01*
X0163540Y0033500D01*
X0160060Y0033500D01*
X0157600Y0031040D01*
X0157600Y0027560D01*
X0159383Y0025777D01*
X0157806Y0024200D01*
X0112794Y0024200D01*
X0110381Y0026613D01*
X0110381Y0027512D01*
X0109836Y0028829D01*
X0108829Y0029836D01*
X0107512Y0030381D01*
X0106088Y0030381D01*
X0104771Y0029836D01*
X0103764Y0028829D01*
X0103219Y0027376D02*
X0075200Y0027376D01*
X0075200Y0025778D02*
X0103347Y0025778D01*
X0104356Y0024179D02*
X0075200Y0024179D01*
X0075200Y0022581D02*
X0107625Y0022581D01*
X0109224Y0020982D02*
X0075200Y0020982D01*
X0075200Y0019384D02*
X0193850Y0019384D01*
X0193850Y0020982D02*
X0161376Y0020982D01*
X0160835Y0020441D02*
X0160835Y0020441D01*
X0158800Y0021800D02*
X0111800Y0021800D01*
X0106800Y0026800D01*
X0109690Y0028975D02*
X0117600Y0028975D01*
X0117784Y0027376D02*
X0110381Y0027376D01*
X0111216Y0025778D02*
X0119383Y0025778D01*
X0124217Y0025778D02*
X0159383Y0025778D01*
X0157784Y0027376D02*
X0125816Y0027376D01*
X0126000Y0028975D02*
X0157600Y0028975D01*
X0157600Y0030573D02*
X0126000Y0030573D01*
X0124868Y0032172D02*
X0158732Y0032172D01*
X0161800Y0029300D02*
X0161800Y0024800D01*
X0158800Y0021800D01*
X0162975Y0022581D02*
X0193850Y0022581D01*
X0193850Y0024179D02*
X0164141Y0024179D01*
X0164217Y0025778D02*
X0171076Y0025778D01*
X0173457Y0029300D02*
X0161800Y0029300D01*
X0164868Y0032172D02*
X0170425Y0032172D01*
X0176490Y0032172D02*
X0189827Y0032172D01*
X0189806Y0032150D02*
X0189401Y0031593D01*
X0189088Y0030979D01*
X0188875Y0030324D01*
X0188768Y0029644D01*
X0188768Y0029300D01*
X0188768Y0028956D01*
X0188875Y0028276D01*
X0189088Y0027621D01*
X0189401Y0027007D01*
X0189806Y0026450D01*
X0190293Y0025963D01*
X0190850Y0025558D01*
X0191463Y0025246D01*
X0192118Y0025033D01*
X0192798Y0024925D01*
X0193142Y0024925D01*
X0193142Y0029300D01*
X0188768Y0029300D01*
X0193142Y0029300D01*
X0193142Y0029300D01*
X0193143Y0029300D01*
X0193142Y0029300D01*
X0193142Y0033675D01*
X0192798Y0033675D01*
X0192118Y0033567D01*
X0191463Y0033354D01*
X0190850Y0033042D01*
X0190293Y0032637D01*
X0189806Y0032150D01*
X0188956Y0030573D02*
X0177449Y0030573D01*
X0177632Y0028975D02*
X0188768Y0028975D01*
X0189213Y0027376D02*
X0177179Y0027376D01*
X0175839Y0025778D02*
X0190548Y0025778D01*
X0193142Y0025778D02*
X0193143Y0025778D01*
X0193142Y0027376D02*
X0193143Y0027376D01*
X0193142Y0028975D02*
X0193143Y0028975D01*
X0193142Y0030573D02*
X0193143Y0030573D01*
X0193142Y0032172D02*
X0193143Y0032172D01*
X0193850Y0017785D02*
X0075200Y0017785D01*
X0075200Y0016187D02*
X0193850Y0016187D01*
X0193850Y0014588D02*
X0075200Y0014588D01*
X0075200Y0012990D02*
X0193850Y0012990D01*
X0193850Y0011391D02*
X0135838Y0011391D01*
X0135683Y0011504D02*
X0134911Y0011897D01*
X0134088Y0012165D01*
X0133233Y0012300D01*
X0133000Y0012300D01*
X0133000Y0007000D01*
X0138300Y0007000D01*
X0138300Y0007233D01*
X0138165Y0008088D01*
X0137897Y0008911D01*
X0137504Y0009683D01*
X0136995Y0010383D01*
X0136383Y0010995D01*
X0135683Y0011504D01*
X0137424Y0009793D02*
X0193850Y0009793D01*
X0193850Y0008194D02*
X0138130Y0008194D01*
X0133000Y0008194D02*
X0132600Y0008194D01*
X0132600Y0009793D02*
X0133000Y0009793D01*
X0133000Y0011391D02*
X0132600Y0011391D01*
X0129762Y0011391D02*
X0125566Y0011391D01*
X0127297Y0009793D02*
X0128176Y0009793D01*
X0120034Y0011391D02*
X0115566Y0011391D01*
X0117297Y0009793D02*
X0118303Y0009793D01*
X0110034Y0011391D02*
X0105566Y0011391D01*
X0107297Y0009793D02*
X0108303Y0009793D01*
X0100034Y0011391D02*
X0095566Y0011391D01*
X0097297Y0009793D02*
X0098303Y0009793D01*
X0090034Y0011391D02*
X0085566Y0011391D01*
X0087297Y0009793D02*
X0088303Y0009793D01*
X0080034Y0011391D02*
X0075566Y0011391D01*
X0077297Y0009793D02*
X0078303Y0009793D01*
X0068303Y0009793D02*
X0067297Y0009793D01*
X0053331Y0081726D02*
X0035381Y0081726D01*
X0035045Y0083324D02*
X0054930Y0083324D01*
X0056528Y0084923D02*
X0033619Y0084923D01*
X0014541Y0088120D02*
X0006600Y0088120D01*
X0006600Y0089718D02*
X0012942Y0089718D01*
X0012600Y0091317D02*
X0006600Y0091317D01*
X0006600Y0092915D02*
X0012600Y0092915D01*
X0013574Y0094514D02*
X0006600Y0094514D01*
X0006600Y0096112D02*
X0077783Y0096112D01*
X0077816Y0097711D02*
X0006600Y0097711D01*
X0006600Y0099309D02*
X0078563Y0099309D01*
X0078386Y0094514D02*
X0060026Y0094514D01*
X0061483Y0092915D02*
X0080427Y0092915D01*
X0074127Y0105703D02*
X0069243Y0105703D01*
X0070560Y0107302D02*
X0072829Y0107302D01*
X0072400Y0108900D02*
X0071000Y0108900D01*
X0071000Y0110499D02*
X0072400Y0110499D01*
X0072400Y0112097D02*
X0071000Y0112097D01*
X0071000Y0113696D02*
X0072400Y0113696D01*
X0072487Y0115294D02*
X0070976Y0115294D01*
X0070247Y0116893D02*
X0073172Y0116893D01*
X0063353Y0116893D02*
X0060247Y0116893D01*
X0060976Y0115294D02*
X0062624Y0115294D01*
X0062600Y0113696D02*
X0061000Y0113696D01*
X0061000Y0112097D02*
X0062600Y0112097D01*
X0062600Y0110499D02*
X0061000Y0110499D01*
X0061000Y0108900D02*
X0062600Y0108900D01*
X0063040Y0107302D02*
X0060560Y0107302D01*
X0059243Y0105703D02*
X0064357Y0105703D01*
X0054357Y0105703D02*
X0049243Y0105703D01*
X0050560Y0107302D02*
X0053040Y0107302D01*
X0052600Y0108900D02*
X0051000Y0108900D01*
X0051000Y0110499D02*
X0052600Y0110499D01*
X0052600Y0112097D02*
X0051000Y0112097D01*
X0051000Y0113696D02*
X0052600Y0113696D01*
X0052624Y0115294D02*
X0050976Y0115294D01*
X0050247Y0116893D02*
X0053353Y0116893D01*
X0043353Y0116893D02*
X0040247Y0116893D01*
X0040976Y0115294D02*
X0042624Y0115294D01*
X0042600Y0113696D02*
X0041000Y0113696D01*
X0041000Y0112097D02*
X0042600Y0112097D01*
X0042600Y0110499D02*
X0041000Y0110499D01*
X0041000Y0108900D02*
X0042600Y0108900D01*
X0043040Y0107302D02*
X0040560Y0107302D01*
X0039243Y0105703D02*
X0044357Y0105703D01*
X0034357Y0105703D02*
X0029243Y0105703D01*
X0030560Y0107302D02*
X0033040Y0107302D01*
X0032600Y0108900D02*
X0031000Y0108900D01*
X0031000Y0110499D02*
X0032600Y0110499D01*
X0032600Y0112097D02*
X0031000Y0112097D01*
X0031000Y0113696D02*
X0032600Y0113696D01*
X0032624Y0115294D02*
X0030976Y0115294D01*
X0030247Y0116893D02*
X0033353Y0116893D01*
X0163159Y0022765D02*
X0163159Y0022765D01*
X0192648Y0059346D02*
X0193850Y0059346D01*
X0193850Y0060945D02*
X0191049Y0060945D01*
X0189451Y0062543D02*
X0193850Y0062543D01*
X0193850Y0064142D02*
X0187418Y0064142D01*
D18*
X0172860Y0095860D02*
X0179800Y0102800D01*
X0191880Y0102800D01*
X0191880Y0112800D02*
X0172800Y0112800D01*
X0172800Y0113800D01*
X0164800Y0121800D01*
X0154300Y0121800D01*
X0134300Y0121800D01*
X0126800Y0114300D01*
X0126800Y0111800D01*
X0126800Y0121800D02*
X0134300Y0121800D01*
X0136800Y0141800D02*
X0146800Y0141800D01*
X0153174Y0135426D01*
X0190300Y0135426D01*
X0151800Y0086800D02*
X0126800Y0086800D01*
X0061800Y0086800D01*
X0056800Y0091800D01*
D19*
X0051800Y0076800D03*
X0031800Y0081800D03*
X0021800Y0081800D03*
X0051800Y0026800D03*
X0106800Y0026800D03*
X0116800Y0061800D03*
X0126800Y0086800D03*
X0151800Y0086800D03*
X0154300Y0121800D03*
X0146800Y0141800D03*
X0166800Y0151800D03*
X0176800Y0161800D03*
X0146800Y0184300D03*
X0126800Y0121800D03*
M02*
